<mxfile host="65bd71144e">
    <diagram id="C5RBs43oDa-KdzZeNtuy" name="Page-1">
        <mxGraphModel dx="1185" dy="1211" grid="1" gridSize="10" guides="1" tooltips="1" connect="1" arrows="1" fold="1" page="1" pageScale="1" pageWidth="827" pageHeight="1169" math="0" shadow="0">
            <root>
                <mxCell id="WIyWlLk6GJQsqaUBKTNV-0"/>
                <mxCell id="WIyWlLk6GJQsqaUBKTNV-1" parent="WIyWlLk6GJQsqaUBKTNV-0"/>
                <mxCell id="5" value="" style="edgeStyle=none;html=1;fontSize=10;fontColor=#F0F0F0;" edge="1" parent="WIyWlLk6GJQsqaUBKTNV-1" source="WIyWlLk6GJQsqaUBKTNV-3" target="4">
                    <mxGeometry relative="1" as="geometry"/>
                </mxCell>
                <mxCell id="WIyWlLk6GJQsqaUBKTNV-3" value="gcd/lcm" style="rounded=1;whiteSpace=wrap;html=1;fontSize=12;glass=0;strokeWidth=1;shadow=0;fontColor=#F0F0F0;" parent="WIyWlLk6GJQsqaUBKTNV-1" vertex="1">
                    <mxGeometry x="160" y="10" width="120" height="40" as="geometry"/>
                </mxCell>
                <mxCell id="1" style="edgeStyle=none;html=1;exitX=0.5;exitY=1;exitDx=0;exitDy=0;entryX=0.5;entryY=0;entryDx=0;entryDy=0;fontSize=10;fontColor=#F0F0F0;" edge="1" parent="WIyWlLk6GJQsqaUBKTNV-1" target="ini4RR_5LGeIk_2E7MMW-1">
                    <mxGeometry relative="1" as="geometry">
                        <mxPoint x="220" y="340" as="sourcePoint"/>
                    </mxGeometry>
                </mxCell>
                <mxCell id="3" value="" style="edgeStyle=none;html=1;fontSize=10;fontColor=#F0F0F0;" edge="1" parent="WIyWlLk6GJQsqaUBKTNV-1" source="ini4RR_5LGeIk_2E7MMW-1" target="2">
                    <mxGeometry relative="1" as="geometry"/>
                </mxCell>
                <mxCell id="ini4RR_5LGeIk_2E7MMW-1" value="input first digit" style="shape=parallelogram;perimeter=parallelogramPerimeter;whiteSpace=wrap;html=1;fixedSize=1;fontColor=#F0F0F0;" parent="WIyWlLk6GJQsqaUBKTNV-1" vertex="1">
                    <mxGeometry x="160" y="370" width="120" height="60" as="geometry"/>
                </mxCell>
                <mxCell id="15" style="edgeStyle=none;html=1;fontSize=12;entryX=0;entryY=0.5;entryDx=0;entryDy=0;fontColor=#F0F0F0;" edge="1" parent="WIyWlLk6GJQsqaUBKTNV-1" source="2" target="14">
                    <mxGeometry relative="1" as="geometry">
                        <mxPoint x="390" y="1100" as="targetPoint"/>
                        <Array as="points">
                            <mxPoint x="360" y="500"/>
                        </Array>
                    </mxGeometry>
                </mxCell>
                <mxCell id="16" value="esc" style="edgeLabel;html=1;align=center;verticalAlign=middle;resizable=0;points=[];fontSize=12;fontColor=#F0F0F0;" vertex="1" connectable="0" parent="15">
                    <mxGeometry x="-0.8723" y="-2" relative="1" as="geometry">
                        <mxPoint x="29" y="-2" as="offset"/>
                    </mxGeometry>
                </mxCell>
                <mxCell id="IbffwZVj77q_SS6-gmPp-16" style="edgeStyle=none;html=1;fontSize=12;entryX=0;entryY=0.5;entryDx=0;entryDy=0;fontColor=#F0F0F0;" edge="1" parent="WIyWlLk6GJQsqaUBKTNV-1" source="2" target="IbffwZVj77q_SS6-gmPp-17">
                    <mxGeometry relative="1" as="geometry">
                        <mxPoint x="120" y="500" as="targetPoint"/>
                        <Array as="points">
                            <mxPoint x="120" y="500"/>
                            <mxPoint x="120" y="710"/>
                        </Array>
                    </mxGeometry>
                </mxCell>
                <mxCell id="IbffwZVj77q_SS6-gmPp-38" value="&lt;font style=&quot;font-size: 12px;&quot;&gt;space&lt;/font&gt;" style="edgeLabel;html=1;align=center;verticalAlign=middle;resizable=0;points=[];fontSize=8;fontColor=#F0F0F0;" vertex="1" connectable="0" parent="IbffwZVj77q_SS6-gmPp-16">
                    <mxGeometry x="-0.1556" y="-2" relative="1" as="geometry">
                        <mxPoint x="37" y="-71" as="offset"/>
                    </mxGeometry>
                </mxCell>
                <mxCell id="IbffwZVj77q_SS6-gmPp-49" value="" style="edgeStyle=none;html=1;fontSize=10;fontColor=#F0F0F0;" edge="1" parent="WIyWlLk6GJQsqaUBKTNV-1" source="2" target="IbffwZVj77q_SS6-gmPp-48">
                    <mxGeometry relative="1" as="geometry"/>
                </mxCell>
                <mxCell id="2" value="check input" style="rhombus;whiteSpace=wrap;html=1;fontSize=10;fontColor=#F0F0F0;" vertex="1" parent="WIyWlLk6GJQsqaUBKTNV-1">
                    <mxGeometry x="180" y="460" width="80" height="80" as="geometry"/>
                </mxCell>
                <mxCell id="6" value="" style="edgeStyle=none;html=1;fontSize=10;fontColor=#F0F0F0;" edge="1" parent="WIyWlLk6GJQsqaUBKTNV-1" source="4">
                    <mxGeometry relative="1" as="geometry">
                        <mxPoint x="220" y="170" as="targetPoint"/>
                    </mxGeometry>
                </mxCell>
                <mxCell id="4" value="print input prompt" style="shape=parallelogram;perimeter=parallelogramPerimeter;whiteSpace=wrap;html=1;fixedSize=1;fontSize=10;fontColor=#F0F0F0;" vertex="1" parent="WIyWlLk6GJQsqaUBKTNV-1">
                    <mxGeometry x="160" y="80" width="120" height="60" as="geometry"/>
                </mxCell>
                <mxCell id="IbffwZVj77q_SS6-gmPp-76" value="" style="edgeStyle=none;html=1;fontSize=10;fontColor=#F0F0F0;" edge="1" parent="WIyWlLk6GJQsqaUBKTNV-1" source="7" target="IbffwZVj77q_SS6-gmPp-53">
                    <mxGeometry relative="1" as="geometry"/>
                </mxCell>
                <mxCell id="7" value="" style="shape=internalStorage;whiteSpace=wrap;html=1;backgroundOutline=1;fontSize=10;fontColor=#F0F0F0;" vertex="1" parent="WIyWlLk6GJQsqaUBKTNV-1">
                    <mxGeometry x="145" y="850" width="150" height="170" as="geometry"/>
                </mxCell>
                <mxCell id="13" style="edgeStyle=none;html=1;fontSize=12;fontColor=#F0F0F0;" edge="1" parent="WIyWlLk6GJQsqaUBKTNV-1" source="8" target="7">
                    <mxGeometry relative="1" as="geometry"/>
                </mxCell>
                <mxCell id="8" value="&lt;font style=&quot;font-size: 12px;&quot;&gt;stack frame&lt;/font&gt;" style="text;html=1;strokeColor=none;fillColor=none;align=center;verticalAlign=middle;whiteSpace=wrap;rounded=0;fontSize=10;fontColor=#F0F0F0;" vertex="1" parent="WIyWlLk6GJQsqaUBKTNV-1">
                    <mxGeometry x="180" y="850" width="80" height="20" as="geometry"/>
                </mxCell>
                <mxCell id="11" value="" style="endArrow=none;html=1;fontSize=10;exitX=0;exitY=0.25;exitDx=0;exitDy=0;entryX=1;entryY=0.25;entryDx=0;entryDy=0;fontColor=#F0F0F0;" edge="1" parent="WIyWlLk6GJQsqaUBKTNV-1" source="7" target="7">
                    <mxGeometry width="50" height="50" relative="1" as="geometry">
                        <mxPoint x="210" y="950" as="sourcePoint"/>
                        <mxPoint x="260" y="900" as="targetPoint"/>
                    </mxGeometry>
                </mxCell>
                <mxCell id="12" value="&lt;font style=&quot;font-size: 8px;&quot;&gt;BP&lt;/font&gt;" style="text;html=1;strokeColor=none;fillColor=none;align=center;verticalAlign=middle;whiteSpace=wrap;rounded=0;fontSize=10;fontColor=#F0F0F0;" vertex="1" parent="WIyWlLk6GJQsqaUBKTNV-1">
                    <mxGeometry x="145" y="870" width="20" height="20" as="geometry"/>
                </mxCell>
                <mxCell id="14" value="end program" style="rounded=0;whiteSpace=wrap;html=1;fontSize=12;fontColor=#F0F0F0;" vertex="1" parent="WIyWlLk6GJQsqaUBKTNV-1">
                    <mxGeometry x="440" y="470" width="120" height="60" as="geometry"/>
                </mxCell>
                <mxCell id="IbffwZVj77q_SS6-gmPp-19" value="" style="edgeStyle=none;html=1;fontSize=12;fontColor=#F0F0F0;" edge="1" parent="WIyWlLk6GJQsqaUBKTNV-1" source="IbffwZVj77q_SS6-gmPp-17" target="IbffwZVj77q_SS6-gmPp-18">
                    <mxGeometry relative="1" as="geometry"/>
                </mxCell>
                <mxCell id="IbffwZVj77q_SS6-gmPp-17" value="print input" style="rounded=0;whiteSpace=wrap;html=1;fontSize=12;fontColor=#F0F0F0;" vertex="1" parent="WIyWlLk6GJQsqaUBKTNV-1">
                    <mxGeometry x="160" y="680" width="120" height="60" as="geometry"/>
                </mxCell>
                <mxCell id="IbffwZVj77q_SS6-gmPp-32" value="" style="edgeStyle=none;html=1;fontSize=12;fontColor=#F0F0F0;" edge="1" parent="WIyWlLk6GJQsqaUBKTNV-1" source="IbffwZVj77q_SS6-gmPp-18" target="8">
                    <mxGeometry relative="1" as="geometry"/>
                </mxCell>
                <mxCell id="IbffwZVj77q_SS6-gmPp-18" value="push input" style="rounded=0;whiteSpace=wrap;html=1;fontSize=12;fontColor=#F0F0F0;" vertex="1" parent="WIyWlLk6GJQsqaUBKTNV-1">
                    <mxGeometry x="160" y="760" width="120" height="60" as="geometry"/>
                </mxCell>
                <mxCell id="IbffwZVj77q_SS6-gmPp-34" value="" style="endArrow=none;html=1;fontSize=10;exitX=0;exitY=0.25;exitDx=0;exitDy=0;entryX=1;entryY=0.25;entryDx=0;entryDy=0;fontColor=#F0F0F0;" edge="1" parent="WIyWlLk6GJQsqaUBKTNV-1">
                    <mxGeometry width="50" height="50" relative="1" as="geometry">
                        <mxPoint x="145" y="911" as="sourcePoint"/>
                        <mxPoint x="294.9999999999999" y="911" as="targetPoint"/>
                    </mxGeometry>
                </mxCell>
                <mxCell id="IbffwZVj77q_SS6-gmPp-35" value="&lt;font style=&quot;font-size: 8px;&quot;&gt;SP&lt;/font&gt;" style="text;html=1;strokeColor=none;fillColor=none;align=center;verticalAlign=middle;whiteSpace=wrap;rounded=0;fontSize=12;fontColor=#F0F0F0;" vertex="1" parent="WIyWlLk6GJQsqaUBKTNV-1">
                    <mxGeometry x="146" y="893" width="19" height="16" as="geometry"/>
                </mxCell>
                <mxCell id="IbffwZVj77q_SS6-gmPp-36" value="input 1" style="text;html=1;strokeColor=none;fillColor=none;align=center;verticalAlign=middle;whiteSpace=wrap;rounded=0;fontSize=8;fontColor=#F0F0F0;" vertex="1" parent="WIyWlLk6GJQsqaUBKTNV-1">
                    <mxGeometry x="190" y="893" width="60" height="17" as="geometry"/>
                </mxCell>
                <mxCell id="IbffwZVj77q_SS6-gmPp-40" value="" style="shape=internalStorage;whiteSpace=wrap;html=1;backgroundOutline=1;fontSize=10;fontColor=#F0F0F0;" vertex="1" parent="WIyWlLk6GJQsqaUBKTNV-1">
                    <mxGeometry x="146" y="170" width="150" height="170" as="geometry"/>
                </mxCell>
                <mxCell id="IbffwZVj77q_SS6-gmPp-41" style="edgeStyle=none;html=1;fontSize=12;fontColor=#F0F0F0;" edge="1" parent="WIyWlLk6GJQsqaUBKTNV-1" source="IbffwZVj77q_SS6-gmPp-42" target="IbffwZVj77q_SS6-gmPp-40">
                    <mxGeometry relative="1" as="geometry"/>
                </mxCell>
                <mxCell id="IbffwZVj77q_SS6-gmPp-42" value="&lt;font style=&quot;font-size: 12px;&quot;&gt;stack frame&lt;/font&gt;" style="text;html=1;strokeColor=none;fillColor=none;align=center;verticalAlign=middle;whiteSpace=wrap;rounded=0;fontSize=10;fontColor=#F0F0F0;" vertex="1" parent="WIyWlLk6GJQsqaUBKTNV-1">
                    <mxGeometry x="181" y="170" width="80" height="20" as="geometry"/>
                </mxCell>
                <mxCell id="IbffwZVj77q_SS6-gmPp-43" value="" style="endArrow=none;html=1;fontSize=10;exitX=0;exitY=0.25;exitDx=0;exitDy=0;entryX=1;entryY=0.25;entryDx=0;entryDy=0;fontColor=#F0F0F0;" edge="1" parent="WIyWlLk6GJQsqaUBKTNV-1" source="IbffwZVj77q_SS6-gmPp-40" target="IbffwZVj77q_SS6-gmPp-40">
                    <mxGeometry width="50" height="50" relative="1" as="geometry">
                        <mxPoint x="211" y="270" as="sourcePoint"/>
                        <mxPoint x="261" y="220" as="targetPoint"/>
                    </mxGeometry>
                </mxCell>
                <mxCell id="IbffwZVj77q_SS6-gmPp-44" value="&lt;font style=&quot;font-size: 6px;&quot;&gt;SP/BP&lt;/font&gt;" style="text;html=1;strokeColor=none;fillColor=none;align=center;verticalAlign=middle;whiteSpace=wrap;rounded=0;fontSize=10;fontColor=#F0F0F0;" vertex="1" parent="WIyWlLk6GJQsqaUBKTNV-1">
                    <mxGeometry x="146" y="190" width="20" height="20" as="geometry"/>
                </mxCell>
                <mxCell id="IbffwZVj77q_SS6-gmPp-50" value="" style="edgeStyle=none;html=1;fontSize=10;fontColor=#F0F0F0;" edge="1" parent="WIyWlLk6GJQsqaUBKTNV-1" source="IbffwZVj77q_SS6-gmPp-48" target="IbffwZVj77q_SS6-gmPp-17">
                    <mxGeometry relative="1" as="geometry"/>
                </mxCell>
                <mxCell id="IbffwZVj77q_SS6-gmPp-51" value="digit" style="edgeLabel;html=1;align=center;verticalAlign=middle;resizable=0;points=[];fontSize=10;fontColor=#F0F0F0;" vertex="1" connectable="0" parent="IbffwZVj77q_SS6-gmPp-50">
                    <mxGeometry x="-0.1" relative="1" as="geometry">
                        <mxPoint as="offset"/>
                    </mxGeometry>
                </mxCell>
                <mxCell id="IbffwZVj77q_SS6-gmPp-48" value="&lt;font style=&quot;font-size: 10px;&quot;&gt;check input&lt;/font&gt;" style="rhombus;whiteSpace=wrap;html=1;fontSize=6;fontColor=#F0F0F0;" vertex="1" parent="WIyWlLk6GJQsqaUBKTNV-1">
                    <mxGeometry x="180" y="560" width="80" height="80" as="geometry"/>
                </mxCell>
                <mxCell id="IbffwZVj77q_SS6-gmPp-52" value="" style="edgeStyle=none;html=1;fontSize=10;fontColor=#F0F0F0;" edge="1" parent="WIyWlLk6GJQsqaUBKTNV-1" source="IbffwZVj77q_SS6-gmPp-53" target="IbffwZVj77q_SS6-gmPp-59">
                    <mxGeometry relative="1" as="geometry"/>
                </mxCell>
                <mxCell id="IbffwZVj77q_SS6-gmPp-53" value="input second digit" style="shape=parallelogram;perimeter=parallelogramPerimeter;whiteSpace=wrap;html=1;fixedSize=1;fontColor=#F0F0F0;" vertex="1" parent="WIyWlLk6GJQsqaUBKTNV-1">
                    <mxGeometry x="170" y="1060" width="120" height="60" as="geometry"/>
                </mxCell>
                <mxCell id="IbffwZVj77q_SS6-gmPp-54" style="edgeStyle=none;html=1;fontSize=12;entryX=0;entryY=0.5;entryDx=0;entryDy=0;fontColor=#F0F0F0;" edge="1" parent="WIyWlLk6GJQsqaUBKTNV-1" source="IbffwZVj77q_SS6-gmPp-59" target="IbffwZVj77q_SS6-gmPp-65">
                    <mxGeometry relative="1" as="geometry">
                        <mxPoint x="400" y="1790" as="targetPoint"/>
                        <Array as="points">
                            <mxPoint x="370" y="1190"/>
                        </Array>
                    </mxGeometry>
                </mxCell>
                <mxCell id="IbffwZVj77q_SS6-gmPp-55" value="esc" style="edgeLabel;html=1;align=center;verticalAlign=middle;resizable=0;points=[];fontSize=12;fontColor=#F0F0F0;" vertex="1" connectable="0" parent="IbffwZVj77q_SS6-gmPp-54">
                    <mxGeometry x="-0.8723" y="-2" relative="1" as="geometry">
                        <mxPoint x="29" y="-2" as="offset"/>
                    </mxGeometry>
                </mxCell>
                <mxCell id="IbffwZVj77q_SS6-gmPp-56" style="edgeStyle=none;html=1;fontSize=12;entryX=0;entryY=0.5;entryDx=0;entryDy=0;fontColor=#F0F0F0;" edge="1" parent="WIyWlLk6GJQsqaUBKTNV-1" source="IbffwZVj77q_SS6-gmPp-59" target="IbffwZVj77q_SS6-gmPp-67">
                    <mxGeometry relative="1" as="geometry">
                        <mxPoint x="130" y="1190" as="targetPoint"/>
                        <Array as="points">
                            <mxPoint x="130" y="1190"/>
                            <mxPoint x="130" y="1400"/>
                        </Array>
                    </mxGeometry>
                </mxCell>
                <mxCell id="IbffwZVj77q_SS6-gmPp-57" value="&lt;font style=&quot;font-size: 12px;&quot;&gt;space&lt;/font&gt;" style="edgeLabel;html=1;align=center;verticalAlign=middle;resizable=0;points=[];fontSize=8;fontColor=#F0F0F0;" vertex="1" connectable="0" parent="IbffwZVj77q_SS6-gmPp-56">
                    <mxGeometry x="-0.1556" y="-2" relative="1" as="geometry">
                        <mxPoint x="37" y="-71" as="offset"/>
                    </mxGeometry>
                </mxCell>
                <mxCell id="IbffwZVj77q_SS6-gmPp-58" value="" style="edgeStyle=none;html=1;fontSize=10;fontColor=#F0F0F0;" edge="1" parent="WIyWlLk6GJQsqaUBKTNV-1" source="IbffwZVj77q_SS6-gmPp-59" target="IbffwZVj77q_SS6-gmPp-75">
                    <mxGeometry relative="1" as="geometry"/>
                </mxCell>
                <mxCell id="IbffwZVj77q_SS6-gmPp-59" value="check input" style="rhombus;whiteSpace=wrap;html=1;fontSize=10;fontColor=#F0F0F0;" vertex="1" parent="WIyWlLk6GJQsqaUBKTNV-1">
                    <mxGeometry x="190" y="1150" width="80" height="80" as="geometry"/>
                </mxCell>
                <mxCell id="IbffwZVj77q_SS6-gmPp-105" value="" style="edgeStyle=none;html=1;fontSize=10;fontColor=#F0F0F0;" edge="1" parent="WIyWlLk6GJQsqaUBKTNV-1" source="IbffwZVj77q_SS6-gmPp-60" target="IbffwZVj77q_SS6-gmPp-80">
                    <mxGeometry relative="1" as="geometry"/>
                </mxCell>
                <mxCell id="IbffwZVj77q_SS6-gmPp-60" value="" style="shape=internalStorage;whiteSpace=wrap;html=1;backgroundOutline=1;fontSize=10;fontColor=#F0F0F0;" vertex="1" parent="WIyWlLk6GJQsqaUBKTNV-1">
                    <mxGeometry x="155" y="1540" width="150" height="170" as="geometry"/>
                </mxCell>
                <mxCell id="IbffwZVj77q_SS6-gmPp-61" style="edgeStyle=none;html=1;fontSize=12;fontColor=#F0F0F0;" edge="1" parent="WIyWlLk6GJQsqaUBKTNV-1" source="IbffwZVj77q_SS6-gmPp-62" target="IbffwZVj77q_SS6-gmPp-60">
                    <mxGeometry relative="1" as="geometry"/>
                </mxCell>
                <mxCell id="IbffwZVj77q_SS6-gmPp-62" value="&lt;font style=&quot;font-size: 12px;&quot;&gt;stack frame&lt;/font&gt;" style="text;html=1;strokeColor=none;fillColor=none;align=center;verticalAlign=middle;whiteSpace=wrap;rounded=0;fontSize=10;fontColor=#F0F0F0;" vertex="1" parent="WIyWlLk6GJQsqaUBKTNV-1">
                    <mxGeometry x="190" y="1540" width="80" height="20" as="geometry"/>
                </mxCell>
                <mxCell id="IbffwZVj77q_SS6-gmPp-63" value="" style="endArrow=none;html=1;fontSize=10;exitX=0;exitY=0.25;exitDx=0;exitDy=0;entryX=1;entryY=0.25;entryDx=0;entryDy=0;fontColor=#F0F0F0;" edge="1" parent="WIyWlLk6GJQsqaUBKTNV-1" source="IbffwZVj77q_SS6-gmPp-60" target="IbffwZVj77q_SS6-gmPp-60">
                    <mxGeometry width="50" height="50" relative="1" as="geometry">
                        <mxPoint x="220" y="1640" as="sourcePoint"/>
                        <mxPoint x="270" y="1590" as="targetPoint"/>
                    </mxGeometry>
                </mxCell>
                <mxCell id="IbffwZVj77q_SS6-gmPp-64" value="&lt;font style=&quot;font-size: 8px;&quot;&gt;BP&lt;/font&gt;" style="text;html=1;strokeColor=none;fillColor=none;align=center;verticalAlign=middle;whiteSpace=wrap;rounded=0;fontSize=10;fontColor=#F0F0F0;" vertex="1" parent="WIyWlLk6GJQsqaUBKTNV-1">
                    <mxGeometry x="155" y="1560" width="20" height="20" as="geometry"/>
                </mxCell>
                <mxCell id="IbffwZVj77q_SS6-gmPp-65" value="end program" style="rounded=0;whiteSpace=wrap;html=1;fontSize=12;fontColor=#F0F0F0;" vertex="1" parent="WIyWlLk6GJQsqaUBKTNV-1">
                    <mxGeometry x="440" y="1160" width="120" height="60" as="geometry"/>
                </mxCell>
                <mxCell id="IbffwZVj77q_SS6-gmPp-66" value="" style="edgeStyle=none;html=1;fontSize=12;fontColor=#F0F0F0;" edge="1" parent="WIyWlLk6GJQsqaUBKTNV-1" source="IbffwZVj77q_SS6-gmPp-67" target="IbffwZVj77q_SS6-gmPp-69">
                    <mxGeometry relative="1" as="geometry"/>
                </mxCell>
                <mxCell id="IbffwZVj77q_SS6-gmPp-67" value="print input" style="rounded=0;whiteSpace=wrap;html=1;fontSize=12;fontColor=#F0F0F0;" vertex="1" parent="WIyWlLk6GJQsqaUBKTNV-1">
                    <mxGeometry x="170" y="1370" width="120" height="60" as="geometry"/>
                </mxCell>
                <mxCell id="IbffwZVj77q_SS6-gmPp-68" value="" style="edgeStyle=none;html=1;fontSize=12;fontColor=#F0F0F0;" edge="1" parent="WIyWlLk6GJQsqaUBKTNV-1" source="IbffwZVj77q_SS6-gmPp-69" target="IbffwZVj77q_SS6-gmPp-62">
                    <mxGeometry relative="1" as="geometry"/>
                </mxCell>
                <mxCell id="IbffwZVj77q_SS6-gmPp-69" value="push input" style="rounded=0;whiteSpace=wrap;html=1;fontSize=12;fontColor=#F0F0F0;" vertex="1" parent="WIyWlLk6GJQsqaUBKTNV-1">
                    <mxGeometry x="170" y="1450" width="120" height="60" as="geometry"/>
                </mxCell>
                <mxCell id="IbffwZVj77q_SS6-gmPp-70" value="" style="endArrow=none;html=1;fontSize=10;exitX=0;exitY=0.25;exitDx=0;exitDy=0;entryX=1;entryY=0.25;entryDx=0;entryDy=0;fontColor=#F0F0F0;" edge="1" parent="WIyWlLk6GJQsqaUBKTNV-1">
                    <mxGeometry width="50" height="50" relative="1" as="geometry">
                        <mxPoint x="155" y="1601" as="sourcePoint"/>
                        <mxPoint x="305" y="1601" as="targetPoint"/>
                    </mxGeometry>
                </mxCell>
                <mxCell id="IbffwZVj77q_SS6-gmPp-71" value="&lt;font style=&quot;font-size: 8px;&quot;&gt;SP&lt;/font&gt;" style="text;html=1;strokeColor=none;fillColor=none;align=center;verticalAlign=middle;whiteSpace=wrap;rounded=0;fontSize=12;fontColor=#F0F0F0;" vertex="1" parent="WIyWlLk6GJQsqaUBKTNV-1">
                    <mxGeometry x="156" y="1600" width="19" height="16" as="geometry"/>
                </mxCell>
                <mxCell id="IbffwZVj77q_SS6-gmPp-72" value="&lt;font style=&quot;font-size: 10px;&quot;&gt;input 1&lt;/font&gt;" style="text;html=1;strokeColor=none;fillColor=none;align=center;verticalAlign=middle;whiteSpace=wrap;rounded=0;fontSize=8;fontColor=#F0F0F0;" vertex="1" parent="WIyWlLk6GJQsqaUBKTNV-1">
                    <mxGeometry x="200" y="1583" width="60" height="17" as="geometry"/>
                </mxCell>
                <mxCell id="IbffwZVj77q_SS6-gmPp-73" value="" style="edgeStyle=none;html=1;fontSize=10;fontColor=#F0F0F0;" edge="1" parent="WIyWlLk6GJQsqaUBKTNV-1" source="IbffwZVj77q_SS6-gmPp-75" target="IbffwZVj77q_SS6-gmPp-67">
                    <mxGeometry relative="1" as="geometry"/>
                </mxCell>
                <mxCell id="IbffwZVj77q_SS6-gmPp-74" value="digit" style="edgeLabel;html=1;align=center;verticalAlign=middle;resizable=0;points=[];fontSize=10;fontColor=#F0F0F0;" vertex="1" connectable="0" parent="IbffwZVj77q_SS6-gmPp-73">
                    <mxGeometry x="-0.1" relative="1" as="geometry">
                        <mxPoint as="offset"/>
                    </mxGeometry>
                </mxCell>
                <mxCell id="IbffwZVj77q_SS6-gmPp-171" style="edgeStyle=none;html=1;fontSize=10;entryX=1;entryY=0.5;entryDx=0;entryDy=0;fontColor=#F0F0F0;" edge="1" parent="WIyWlLk6GJQsqaUBKTNV-1" source="IbffwZVj77q_SS6-gmPp-75" target="ini4RR_5LGeIk_2E7MMW-1">
                    <mxGeometry relative="1" as="geometry">
                        <mxPoint x="440" y="640.0000000000002" as="targetPoint"/>
                        <Array as="points">
                            <mxPoint x="360" y="1290"/>
                            <mxPoint x="360" y="400"/>
                        </Array>
                    </mxGeometry>
                </mxCell>
                <mxCell id="IbffwZVj77q_SS6-gmPp-172" value="backspace" style="edgeLabel;html=1;align=center;verticalAlign=middle;resizable=0;points=[];fontSize=10;fontColor=#F0F0F0;" vertex="1" connectable="0" parent="IbffwZVj77q_SS6-gmPp-171">
                    <mxGeometry x="-0.9008" y="-2" relative="1" as="geometry">
                        <mxPoint y="-2" as="offset"/>
                    </mxGeometry>
                </mxCell>
                <mxCell id="IbffwZVj77q_SS6-gmPp-75" value="&lt;font style=&quot;font-size: 10px;&quot;&gt;check input&lt;/font&gt;" style="rhombus;whiteSpace=wrap;html=1;fontSize=6;fontColor=#F0F0F0;" vertex="1" parent="WIyWlLk6GJQsqaUBKTNV-1">
                    <mxGeometry x="190" y="1250" width="80" height="80" as="geometry"/>
                </mxCell>
                <mxCell id="IbffwZVj77q_SS6-gmPp-77" value="" style="endArrow=none;html=1;fontSize=10;exitX=0;exitY=0.25;exitDx=0;exitDy=0;entryX=1;entryY=0.25;entryDx=0;entryDy=0;fontColor=#F0F0F0;" edge="1" parent="WIyWlLk6GJQsqaUBKTNV-1">
                    <mxGeometry width="50" height="50" relative="1" as="geometry">
                        <mxPoint x="155" y="1620.0000000000002" as="sourcePoint"/>
                        <mxPoint x="305" y="1620.0000000000002" as="targetPoint"/>
                    </mxGeometry>
                </mxCell>
                <mxCell id="IbffwZVj77q_SS6-gmPp-78" value="input 2" style="text;html=1;strokeColor=none;fillColor=none;align=center;verticalAlign=middle;whiteSpace=wrap;rounded=0;fontSize=10;fontColor=#F0F0F0;" vertex="1" parent="WIyWlLk6GJQsqaUBKTNV-1">
                    <mxGeometry x="200" y="1600" width="60" height="20" as="geometry"/>
                </mxCell>
                <mxCell id="IbffwZVj77q_SS6-gmPp-79" value="" style="edgeStyle=none;html=1;fontSize=10;fontColor=#F0F0F0;" edge="1" parent="WIyWlLk6GJQsqaUBKTNV-1" source="IbffwZVj77q_SS6-gmPp-80" target="IbffwZVj77q_SS6-gmPp-86">
                    <mxGeometry relative="1" as="geometry"/>
                </mxCell>
                <mxCell id="IbffwZVj77q_SS6-gmPp-80" value="input third digit" style="shape=parallelogram;perimeter=parallelogramPerimeter;whiteSpace=wrap;html=1;fixedSize=1;fontColor=#F0F0F0;" vertex="1" parent="WIyWlLk6GJQsqaUBKTNV-1">
                    <mxGeometry x="170" y="1754" width="120" height="60" as="geometry"/>
                </mxCell>
                <mxCell id="IbffwZVj77q_SS6-gmPp-81" style="edgeStyle=none;html=1;fontSize=12;entryX=0;entryY=0.5;entryDx=0;entryDy=0;fontColor=#F0F0F0;" edge="1" parent="WIyWlLk6GJQsqaUBKTNV-1" source="IbffwZVj77q_SS6-gmPp-86" target="IbffwZVj77q_SS6-gmPp-92">
                    <mxGeometry relative="1" as="geometry">
                        <mxPoint x="400" y="2484" as="targetPoint"/>
                        <Array as="points">
                            <mxPoint x="370" y="1884"/>
                        </Array>
                    </mxGeometry>
                </mxCell>
                <mxCell id="IbffwZVj77q_SS6-gmPp-82" value="esc" style="edgeLabel;html=1;align=center;verticalAlign=middle;resizable=0;points=[];fontSize=12;fontColor=#F0F0F0;" vertex="1" connectable="0" parent="IbffwZVj77q_SS6-gmPp-81">
                    <mxGeometry x="-0.8723" y="-2" relative="1" as="geometry">
                        <mxPoint x="29" y="-2" as="offset"/>
                    </mxGeometry>
                </mxCell>
                <mxCell id="IbffwZVj77q_SS6-gmPp-83" style="edgeStyle=none;html=1;fontSize=12;entryX=0;entryY=0.5;entryDx=0;entryDy=0;fontColor=#F0F0F0;" edge="1" parent="WIyWlLk6GJQsqaUBKTNV-1" source="IbffwZVj77q_SS6-gmPp-86" target="IbffwZVj77q_SS6-gmPp-94">
                    <mxGeometry relative="1" as="geometry">
                        <mxPoint x="130" y="1884" as="targetPoint"/>
                        <Array as="points">
                            <mxPoint x="130" y="1884"/>
                            <mxPoint x="130" y="2094"/>
                        </Array>
                    </mxGeometry>
                </mxCell>
                <mxCell id="IbffwZVj77q_SS6-gmPp-84" value="&lt;font style=&quot;font-size: 12px;&quot;&gt;space&lt;/font&gt;" style="edgeLabel;html=1;align=center;verticalAlign=middle;resizable=0;points=[];fontSize=8;fontColor=#F0F0F0;" vertex="1" connectable="0" parent="IbffwZVj77q_SS6-gmPp-83">
                    <mxGeometry x="-0.1556" y="-2" relative="1" as="geometry">
                        <mxPoint x="37" y="-71" as="offset"/>
                    </mxGeometry>
                </mxCell>
                <mxCell id="IbffwZVj77q_SS6-gmPp-85" value="" style="edgeStyle=none;html=1;fontSize=10;fontColor=#F0F0F0;" edge="1" parent="WIyWlLk6GJQsqaUBKTNV-1" source="IbffwZVj77q_SS6-gmPp-86" target="IbffwZVj77q_SS6-gmPp-102">
                    <mxGeometry relative="1" as="geometry"/>
                </mxCell>
                <mxCell id="IbffwZVj77q_SS6-gmPp-86" value="check input" style="rhombus;whiteSpace=wrap;html=1;fontSize=10;fontColor=#F0F0F0;" vertex="1" parent="WIyWlLk6GJQsqaUBKTNV-1">
                    <mxGeometry x="190" y="1844" width="80" height="80" as="geometry"/>
                </mxCell>
                <mxCell id="IbffwZVj77q_SS6-gmPp-136" value="" style="edgeStyle=none;html=1;fontSize=10;fontColor=#F0F0F0;" edge="1" parent="WIyWlLk6GJQsqaUBKTNV-1" source="IbffwZVj77q_SS6-gmPp-87" target="IbffwZVj77q_SS6-gmPp-109">
                    <mxGeometry relative="1" as="geometry"/>
                </mxCell>
                <mxCell id="IbffwZVj77q_SS6-gmPp-87" value="" style="shape=internalStorage;whiteSpace=wrap;html=1;backgroundOutline=1;fontSize=10;fontColor=#F0F0F0;" vertex="1" parent="WIyWlLk6GJQsqaUBKTNV-1">
                    <mxGeometry x="155" y="2234" width="150" height="170" as="geometry"/>
                </mxCell>
                <mxCell id="IbffwZVj77q_SS6-gmPp-88" style="edgeStyle=none;html=1;fontSize=12;fontColor=#F0F0F0;" edge="1" parent="WIyWlLk6GJQsqaUBKTNV-1" source="IbffwZVj77q_SS6-gmPp-89" target="IbffwZVj77q_SS6-gmPp-87">
                    <mxGeometry relative="1" as="geometry"/>
                </mxCell>
                <mxCell id="IbffwZVj77q_SS6-gmPp-89" value="&lt;font style=&quot;font-size: 12px;&quot;&gt;stack frame&lt;/font&gt;" style="text;html=1;strokeColor=none;fillColor=none;align=center;verticalAlign=middle;whiteSpace=wrap;rounded=0;fontSize=10;fontColor=#F0F0F0;" vertex="1" parent="WIyWlLk6GJQsqaUBKTNV-1">
                    <mxGeometry x="190" y="2234" width="80" height="20" as="geometry"/>
                </mxCell>
                <mxCell id="IbffwZVj77q_SS6-gmPp-90" value="" style="endArrow=none;html=1;fontSize=10;exitX=0;exitY=0.25;exitDx=0;exitDy=0;entryX=1;entryY=0.25;entryDx=0;entryDy=0;fontColor=#F0F0F0;" edge="1" parent="WIyWlLk6GJQsqaUBKTNV-1" source="IbffwZVj77q_SS6-gmPp-87" target="IbffwZVj77q_SS6-gmPp-87">
                    <mxGeometry width="50" height="50" relative="1" as="geometry">
                        <mxPoint x="220" y="2334" as="sourcePoint"/>
                        <mxPoint x="270" y="2284" as="targetPoint"/>
                    </mxGeometry>
                </mxCell>
                <mxCell id="IbffwZVj77q_SS6-gmPp-91" value="&lt;font style=&quot;font-size: 8px;&quot;&gt;BP&lt;/font&gt;" style="text;html=1;strokeColor=none;fillColor=none;align=center;verticalAlign=middle;whiteSpace=wrap;rounded=0;fontSize=10;fontColor=#F0F0F0;" vertex="1" parent="WIyWlLk6GJQsqaUBKTNV-1">
                    <mxGeometry x="155" y="2254" width="20" height="20" as="geometry"/>
                </mxCell>
                <mxCell id="IbffwZVj77q_SS6-gmPp-92" value="end program" style="rounded=0;whiteSpace=wrap;html=1;fontSize=12;fontColor=#F0F0F0;" vertex="1" parent="WIyWlLk6GJQsqaUBKTNV-1">
                    <mxGeometry x="440" y="1854" width="120" height="60" as="geometry"/>
                </mxCell>
                <mxCell id="IbffwZVj77q_SS6-gmPp-93" value="" style="edgeStyle=none;html=1;fontSize=12;fontColor=#F0F0F0;" edge="1" parent="WIyWlLk6GJQsqaUBKTNV-1" source="IbffwZVj77q_SS6-gmPp-94" target="IbffwZVj77q_SS6-gmPp-96">
                    <mxGeometry relative="1" as="geometry"/>
                </mxCell>
                <mxCell id="IbffwZVj77q_SS6-gmPp-94" value="print input" style="rounded=0;whiteSpace=wrap;html=1;fontSize=12;fontColor=#F0F0F0;" vertex="1" parent="WIyWlLk6GJQsqaUBKTNV-1">
                    <mxGeometry x="170" y="2064" width="120" height="60" as="geometry"/>
                </mxCell>
                <mxCell id="IbffwZVj77q_SS6-gmPp-95" value="" style="edgeStyle=none;html=1;fontSize=12;fontColor=#F0F0F0;" edge="1" parent="WIyWlLk6GJQsqaUBKTNV-1" source="IbffwZVj77q_SS6-gmPp-96" target="IbffwZVj77q_SS6-gmPp-89">
                    <mxGeometry relative="1" as="geometry"/>
                </mxCell>
                <mxCell id="IbffwZVj77q_SS6-gmPp-96" value="push input" style="rounded=0;whiteSpace=wrap;html=1;fontSize=12;fontColor=#F0F0F0;" vertex="1" parent="WIyWlLk6GJQsqaUBKTNV-1">
                    <mxGeometry x="170" y="2144" width="120" height="60" as="geometry"/>
                </mxCell>
                <mxCell id="IbffwZVj77q_SS6-gmPp-97" value="" style="endArrow=none;html=1;fontSize=10;exitX=0;exitY=0.25;exitDx=0;exitDy=0;entryX=1;entryY=0.25;entryDx=0;entryDy=0;fontColor=#F0F0F0;" edge="1" parent="WIyWlLk6GJQsqaUBKTNV-1">
                    <mxGeometry width="50" height="50" relative="1" as="geometry">
                        <mxPoint x="155.0000000000001" y="2295" as="sourcePoint"/>
                        <mxPoint x="305" y="2295" as="targetPoint"/>
                    </mxGeometry>
                </mxCell>
                <mxCell id="IbffwZVj77q_SS6-gmPp-98" value="&lt;font style=&quot;font-size: 8px;&quot;&gt;SP&lt;/font&gt;" style="text;html=1;strokeColor=none;fillColor=none;align=center;verticalAlign=middle;whiteSpace=wrap;rounded=0;fontSize=12;fontColor=#F0F0F0;" vertex="1" parent="WIyWlLk6GJQsqaUBKTNV-1">
                    <mxGeometry x="155.5" y="2314" width="19" height="16" as="geometry"/>
                </mxCell>
                <mxCell id="IbffwZVj77q_SS6-gmPp-99" value="&lt;font style=&quot;font-size: 10px;&quot;&gt;input 1&lt;/font&gt;" style="text;html=1;strokeColor=none;fillColor=none;align=center;verticalAlign=middle;whiteSpace=wrap;rounded=0;fontSize=8;fontColor=#F0F0F0;" vertex="1" parent="WIyWlLk6GJQsqaUBKTNV-1">
                    <mxGeometry x="200" y="2277" width="60" height="17" as="geometry"/>
                </mxCell>
                <mxCell id="IbffwZVj77q_SS6-gmPp-100" value="" style="edgeStyle=none;html=1;fontSize=10;fontColor=#F0F0F0;" edge="1" parent="WIyWlLk6GJQsqaUBKTNV-1" source="IbffwZVj77q_SS6-gmPp-102" target="IbffwZVj77q_SS6-gmPp-94">
                    <mxGeometry relative="1" as="geometry"/>
                </mxCell>
                <mxCell id="IbffwZVj77q_SS6-gmPp-101" value="digit" style="edgeLabel;html=1;align=center;verticalAlign=middle;resizable=0;points=[];fontSize=10;fontColor=#F0F0F0;" vertex="1" connectable="0" parent="IbffwZVj77q_SS6-gmPp-100">
                    <mxGeometry x="-0.1" relative="1" as="geometry">
                        <mxPoint as="offset"/>
                    </mxGeometry>
                </mxCell>
                <mxCell id="IbffwZVj77q_SS6-gmPp-102" value="&lt;font style=&quot;font-size: 10px;&quot;&gt;check input&lt;/font&gt;" style="rhombus;whiteSpace=wrap;html=1;fontSize=6;fontColor=#F0F0F0;" vertex="1" parent="WIyWlLk6GJQsqaUBKTNV-1">
                    <mxGeometry x="190" y="1944" width="80" height="80" as="geometry"/>
                </mxCell>
                <mxCell id="IbffwZVj77q_SS6-gmPp-103" value="" style="endArrow=none;html=1;fontSize=10;exitX=0;exitY=0.25;exitDx=0;exitDy=0;entryX=1;entryY=0.25;entryDx=0;entryDy=0;fontColor=#F0F0F0;" edge="1" parent="WIyWlLk6GJQsqaUBKTNV-1">
                    <mxGeometry width="50" height="50" relative="1" as="geometry">
                        <mxPoint x="155.0000000000001" y="2314" as="sourcePoint"/>
                        <mxPoint x="305" y="2314" as="targetPoint"/>
                    </mxGeometry>
                </mxCell>
                <mxCell id="IbffwZVj77q_SS6-gmPp-104" value="input 2" style="text;html=1;strokeColor=none;fillColor=none;align=center;verticalAlign=middle;whiteSpace=wrap;rounded=0;fontSize=10;fontColor=#F0F0F0;" vertex="1" parent="WIyWlLk6GJQsqaUBKTNV-1">
                    <mxGeometry x="200" y="2294" width="60" height="20" as="geometry"/>
                </mxCell>
                <mxCell id="IbffwZVj77q_SS6-gmPp-106" value="" style="endArrow=none;html=1;fontSize=10;exitX=0;exitY=0.25;exitDx=0;exitDy=0;entryX=1;entryY=0.25;entryDx=0;entryDy=0;fontColor=#F0F0F0;" edge="1" parent="WIyWlLk6GJQsqaUBKTNV-1">
                    <mxGeometry width="50" height="50" relative="1" as="geometry">
                        <mxPoint x="155.0000000000001" y="2333" as="sourcePoint"/>
                        <mxPoint x="305" y="2333" as="targetPoint"/>
                    </mxGeometry>
                </mxCell>
                <mxCell id="IbffwZVj77q_SS6-gmPp-107" value="input 3" style="text;html=1;strokeColor=none;fillColor=none;align=center;verticalAlign=middle;whiteSpace=wrap;rounded=0;fontSize=10;fontColor=#F0F0F0;" vertex="1" parent="WIyWlLk6GJQsqaUBKTNV-1">
                    <mxGeometry x="200" y="2317" width="60" height="13" as="geometry"/>
                </mxCell>
                <mxCell id="IbffwZVj77q_SS6-gmPp-108" value="" style="edgeStyle=none;html=1;fontSize=10;fontColor=#F0F0F0;" edge="1" parent="WIyWlLk6GJQsqaUBKTNV-1" source="IbffwZVj77q_SS6-gmPp-109" target="IbffwZVj77q_SS6-gmPp-115">
                    <mxGeometry relative="1" as="geometry"/>
                </mxCell>
                <mxCell id="IbffwZVj77q_SS6-gmPp-109" value="input fourth digit" style="shape=parallelogram;perimeter=parallelogramPerimeter;whiteSpace=wrap;html=1;fixedSize=1;fontColor=#F0F0F0;" vertex="1" parent="WIyWlLk6GJQsqaUBKTNV-1">
                    <mxGeometry x="170" y="2450" width="120" height="60" as="geometry"/>
                </mxCell>
                <mxCell id="IbffwZVj77q_SS6-gmPp-110" style="edgeStyle=none;html=1;fontSize=12;entryX=0;entryY=0.5;entryDx=0;entryDy=0;fontColor=#F0F0F0;" edge="1" parent="WIyWlLk6GJQsqaUBKTNV-1" source="IbffwZVj77q_SS6-gmPp-115" target="IbffwZVj77q_SS6-gmPp-121">
                    <mxGeometry relative="1" as="geometry">
                        <mxPoint x="400" y="3180" as="targetPoint"/>
                        <Array as="points">
                            <mxPoint x="370" y="2580"/>
                        </Array>
                    </mxGeometry>
                </mxCell>
                <mxCell id="IbffwZVj77q_SS6-gmPp-111" value="esc" style="edgeLabel;html=1;align=center;verticalAlign=middle;resizable=0;points=[];fontSize=12;fontColor=#F0F0F0;" vertex="1" connectable="0" parent="IbffwZVj77q_SS6-gmPp-110">
                    <mxGeometry x="-0.8723" y="-2" relative="1" as="geometry">
                        <mxPoint x="29" y="-2" as="offset"/>
                    </mxGeometry>
                </mxCell>
                <mxCell id="IbffwZVj77q_SS6-gmPp-112" style="edgeStyle=none;html=1;fontSize=12;entryX=0;entryY=0.5;entryDx=0;entryDy=0;fontColor=#F0F0F0;" edge="1" parent="WIyWlLk6GJQsqaUBKTNV-1" source="IbffwZVj77q_SS6-gmPp-115" target="IbffwZVj77q_SS6-gmPp-123">
                    <mxGeometry relative="1" as="geometry">
                        <mxPoint x="130" y="2580" as="targetPoint"/>
                        <Array as="points">
                            <mxPoint x="130" y="2580"/>
                            <mxPoint x="130" y="2790"/>
                        </Array>
                    </mxGeometry>
                </mxCell>
                <mxCell id="IbffwZVj77q_SS6-gmPp-113" value="&lt;font style=&quot;font-size: 12px;&quot;&gt;space&lt;/font&gt;" style="edgeLabel;html=1;align=center;verticalAlign=middle;resizable=0;points=[];fontSize=8;fontColor=#F0F0F0;" vertex="1" connectable="0" parent="IbffwZVj77q_SS6-gmPp-112">
                    <mxGeometry x="-0.1556" y="-2" relative="1" as="geometry">
                        <mxPoint x="37" y="-71" as="offset"/>
                    </mxGeometry>
                </mxCell>
                <mxCell id="IbffwZVj77q_SS6-gmPp-114" value="" style="edgeStyle=none;html=1;fontSize=10;fontColor=#F0F0F0;" edge="1" parent="WIyWlLk6GJQsqaUBKTNV-1" source="IbffwZVj77q_SS6-gmPp-115" target="IbffwZVj77q_SS6-gmPp-131">
                    <mxGeometry relative="1" as="geometry"/>
                </mxCell>
                <mxCell id="IbffwZVj77q_SS6-gmPp-115" value="check input" style="rhombus;whiteSpace=wrap;html=1;fontSize=10;fontColor=#F0F0F0;" vertex="1" parent="WIyWlLk6GJQsqaUBKTNV-1">
                    <mxGeometry x="190" y="2540" width="80" height="80" as="geometry"/>
                </mxCell>
                <mxCell id="IbffwZVj77q_SS6-gmPp-179" value="" style="edgeStyle=none;html=1;fontSize=10;entryX=0.5;entryY=0;entryDx=0;entryDy=0;fontColor=#F0F0F0;" edge="1" parent="WIyWlLk6GJQsqaUBKTNV-1" source="IbffwZVj77q_SS6-gmPp-116" target="IbffwZVj77q_SS6-gmPp-140">
                    <mxGeometry relative="1" as="geometry"/>
                </mxCell>
                <mxCell id="IbffwZVj77q_SS6-gmPp-116" value="" style="shape=internalStorage;whiteSpace=wrap;html=1;backgroundOutline=1;fontSize=10;fontColor=#F0F0F0;" vertex="1" parent="WIyWlLk6GJQsqaUBKTNV-1">
                    <mxGeometry x="155" y="2930" width="150" height="170" as="geometry"/>
                </mxCell>
                <mxCell id="IbffwZVj77q_SS6-gmPp-117" style="edgeStyle=none;html=1;fontSize=12;fontColor=#F0F0F0;" edge="1" parent="WIyWlLk6GJQsqaUBKTNV-1" source="IbffwZVj77q_SS6-gmPp-118" target="IbffwZVj77q_SS6-gmPp-116">
                    <mxGeometry relative="1" as="geometry"/>
                </mxCell>
                <mxCell id="IbffwZVj77q_SS6-gmPp-118" value="&lt;font style=&quot;font-size: 12px;&quot;&gt;stack frame&lt;/font&gt;" style="text;html=1;strokeColor=none;fillColor=none;align=center;verticalAlign=middle;whiteSpace=wrap;rounded=0;fontSize=10;fontColor=#F0F0F0;" vertex="1" parent="WIyWlLk6GJQsqaUBKTNV-1">
                    <mxGeometry x="190" y="2930" width="80" height="20" as="geometry"/>
                </mxCell>
                <mxCell id="IbffwZVj77q_SS6-gmPp-119" value="" style="endArrow=none;html=1;fontSize=10;exitX=0;exitY=0.25;exitDx=0;exitDy=0;entryX=1;entryY=0.25;entryDx=0;entryDy=0;fontColor=#F0F0F0;" edge="1" parent="WIyWlLk6GJQsqaUBKTNV-1" source="IbffwZVj77q_SS6-gmPp-116" target="IbffwZVj77q_SS6-gmPp-116">
                    <mxGeometry width="50" height="50" relative="1" as="geometry">
                        <mxPoint x="220" y="3030" as="sourcePoint"/>
                        <mxPoint x="270" y="2980" as="targetPoint"/>
                    </mxGeometry>
                </mxCell>
                <mxCell id="IbffwZVj77q_SS6-gmPp-120" value="&lt;font style=&quot;font-size: 8px;&quot;&gt;BP&lt;/font&gt;" style="text;html=1;strokeColor=none;fillColor=none;align=center;verticalAlign=middle;whiteSpace=wrap;rounded=0;fontSize=10;fontColor=#F0F0F0;" vertex="1" parent="WIyWlLk6GJQsqaUBKTNV-1">
                    <mxGeometry x="155" y="2950" width="20" height="20" as="geometry"/>
                </mxCell>
                <mxCell id="IbffwZVj77q_SS6-gmPp-121" value="end program" style="rounded=0;whiteSpace=wrap;html=1;fontSize=12;fontColor=#F0F0F0;" vertex="1" parent="WIyWlLk6GJQsqaUBKTNV-1">
                    <mxGeometry x="450" y="2550" width="120" height="60" as="geometry"/>
                </mxCell>
                <mxCell id="IbffwZVj77q_SS6-gmPp-122" value="" style="edgeStyle=none;html=1;fontSize=12;fontColor=#F0F0F0;" edge="1" parent="WIyWlLk6GJQsqaUBKTNV-1" source="IbffwZVj77q_SS6-gmPp-123" target="IbffwZVj77q_SS6-gmPp-125">
                    <mxGeometry relative="1" as="geometry"/>
                </mxCell>
                <mxCell id="IbffwZVj77q_SS6-gmPp-123" value="print input" style="rounded=0;whiteSpace=wrap;html=1;fontSize=12;fontColor=#F0F0F0;" vertex="1" parent="WIyWlLk6GJQsqaUBKTNV-1">
                    <mxGeometry x="170" y="2760" width="120" height="60" as="geometry"/>
                </mxCell>
                <mxCell id="IbffwZVj77q_SS6-gmPp-124" value="" style="edgeStyle=none;html=1;fontSize=12;fontColor=#F0F0F0;" edge="1" parent="WIyWlLk6GJQsqaUBKTNV-1" source="IbffwZVj77q_SS6-gmPp-125" target="IbffwZVj77q_SS6-gmPp-118">
                    <mxGeometry relative="1" as="geometry"/>
                </mxCell>
                <mxCell id="IbffwZVj77q_SS6-gmPp-125" value="push input" style="rounded=0;whiteSpace=wrap;html=1;fontSize=12;fontColor=#F0F0F0;" vertex="1" parent="WIyWlLk6GJQsqaUBKTNV-1">
                    <mxGeometry x="170" y="2840" width="120" height="60" as="geometry"/>
                </mxCell>
                <mxCell id="IbffwZVj77q_SS6-gmPp-126" value="" style="endArrow=none;html=1;fontSize=10;exitX=0;exitY=0.25;exitDx=0;exitDy=0;entryX=1;entryY=0.25;entryDx=0;entryDy=0;fontColor=#F0F0F0;" edge="1" parent="WIyWlLk6GJQsqaUBKTNV-1">
                    <mxGeometry width="50" height="50" relative="1" as="geometry">
                        <mxPoint x="155" y="2991" as="sourcePoint"/>
                        <mxPoint x="305" y="2991" as="targetPoint"/>
                    </mxGeometry>
                </mxCell>
                <mxCell id="IbffwZVj77q_SS6-gmPp-127" value="&lt;font style=&quot;font-size: 8px;&quot;&gt;SP&lt;/font&gt;" style="text;html=1;strokeColor=none;fillColor=none;align=center;verticalAlign=middle;whiteSpace=wrap;rounded=0;fontSize=12;fontColor=#F0F0F0;" vertex="1" parent="WIyWlLk6GJQsqaUBKTNV-1">
                    <mxGeometry x="155" y="3030" width="19" height="16" as="geometry"/>
                </mxCell>
                <mxCell id="IbffwZVj77q_SS6-gmPp-128" value="&lt;font style=&quot;font-size: 10px;&quot;&gt;input 1&lt;/font&gt;" style="text;html=1;strokeColor=none;fillColor=none;align=center;verticalAlign=middle;whiteSpace=wrap;rounded=0;fontSize=8;fontColor=#F0F0F0;" vertex="1" parent="WIyWlLk6GJQsqaUBKTNV-1">
                    <mxGeometry x="200" y="2973" width="60" height="17" as="geometry"/>
                </mxCell>
                <mxCell id="IbffwZVj77q_SS6-gmPp-129" value="" style="edgeStyle=none;html=1;fontSize=10;fontColor=#F0F0F0;" edge="1" parent="WIyWlLk6GJQsqaUBKTNV-1" source="IbffwZVj77q_SS6-gmPp-131" target="IbffwZVj77q_SS6-gmPp-123">
                    <mxGeometry relative="1" as="geometry"/>
                </mxCell>
                <mxCell id="IbffwZVj77q_SS6-gmPp-130" value="digit" style="edgeLabel;html=1;align=center;verticalAlign=middle;resizable=0;points=[];fontSize=10;fontColor=#F0F0F0;" vertex="1" connectable="0" parent="IbffwZVj77q_SS6-gmPp-129">
                    <mxGeometry x="-0.1" relative="1" as="geometry">
                        <mxPoint as="offset"/>
                    </mxGeometry>
                </mxCell>
                <mxCell id="IbffwZVj77q_SS6-gmPp-131" value="&lt;font style=&quot;font-size: 10px;&quot;&gt;check input&lt;/font&gt;" style="rhombus;whiteSpace=wrap;html=1;fontSize=6;fontColor=#F0F0F0;" vertex="1" parent="WIyWlLk6GJQsqaUBKTNV-1">
                    <mxGeometry x="190" y="2640" width="80" height="80" as="geometry"/>
                </mxCell>
                <mxCell id="IbffwZVj77q_SS6-gmPp-132" value="" style="endArrow=none;html=1;fontSize=10;exitX=0;exitY=0.25;exitDx=0;exitDy=0;entryX=1;entryY=0.25;entryDx=0;entryDy=0;fontColor=#F0F0F0;" edge="1" parent="WIyWlLk6GJQsqaUBKTNV-1">
                    <mxGeometry width="50" height="50" relative="1" as="geometry">
                        <mxPoint x="155" y="3010" as="sourcePoint"/>
                        <mxPoint x="305" y="3010" as="targetPoint"/>
                    </mxGeometry>
                </mxCell>
                <mxCell id="IbffwZVj77q_SS6-gmPp-133" value="input 2" style="text;html=1;strokeColor=none;fillColor=none;align=center;verticalAlign=middle;whiteSpace=wrap;rounded=0;fontSize=10;fontColor=#F0F0F0;" vertex="1" parent="WIyWlLk6GJQsqaUBKTNV-1">
                    <mxGeometry x="200" y="2990" width="60" height="20" as="geometry"/>
                </mxCell>
                <mxCell id="IbffwZVj77q_SS6-gmPp-134" value="" style="endArrow=none;html=1;fontSize=10;exitX=0;exitY=0.25;exitDx=0;exitDy=0;entryX=1;entryY=0.25;entryDx=0;entryDy=0;fontColor=#F0F0F0;" edge="1" parent="WIyWlLk6GJQsqaUBKTNV-1">
                    <mxGeometry width="50" height="50" relative="1" as="geometry">
                        <mxPoint x="155" y="3029" as="sourcePoint"/>
                        <mxPoint x="305" y="3029" as="targetPoint"/>
                    </mxGeometry>
                </mxCell>
                <mxCell id="IbffwZVj77q_SS6-gmPp-135" value="input 3" style="text;html=1;strokeColor=none;fillColor=none;align=center;verticalAlign=middle;whiteSpace=wrap;rounded=0;fontSize=10;fontColor=#F0F0F0;" vertex="1" parent="WIyWlLk6GJQsqaUBKTNV-1">
                    <mxGeometry x="200" y="3013" width="60" height="13" as="geometry"/>
                </mxCell>
                <mxCell id="IbffwZVj77q_SS6-gmPp-137" value="" style="endArrow=none;html=1;fontSize=10;exitX=0;exitY=0.25;exitDx=0;exitDy=0;entryX=1;entryY=0.25;entryDx=0;entryDy=0;fontColor=#F0F0F0;" edge="1" parent="WIyWlLk6GJQsqaUBKTNV-1">
                    <mxGeometry width="50" height="50" relative="1" as="geometry">
                        <mxPoint x="155" y="3048" as="sourcePoint"/>
                        <mxPoint x="305" y="3048" as="targetPoint"/>
                    </mxGeometry>
                </mxCell>
                <mxCell id="IbffwZVj77q_SS6-gmPp-138" value="input 4" style="text;html=1;strokeColor=none;fillColor=none;align=center;verticalAlign=middle;whiteSpace=wrap;rounded=0;fontSize=10;fontColor=#F0F0F0;" vertex="1" parent="WIyWlLk6GJQsqaUBKTNV-1">
                    <mxGeometry x="200" y="3032" width="60" height="13" as="geometry"/>
                </mxCell>
                <mxCell id="IbffwZVj77q_SS6-gmPp-139" value="" style="edgeStyle=none;html=1;fontSize=10;fontColor=#F0F0F0;" edge="1" parent="WIyWlLk6GJQsqaUBKTNV-1" source="IbffwZVj77q_SS6-gmPp-140" target="IbffwZVj77q_SS6-gmPp-146">
                    <mxGeometry relative="1" as="geometry"/>
                </mxCell>
                <mxCell id="IbffwZVj77q_SS6-gmPp-140" value="input fifth digit" style="shape=parallelogram;perimeter=parallelogramPerimeter;whiteSpace=wrap;html=1;fixedSize=1;fontColor=#F0F0F0;" vertex="1" parent="WIyWlLk6GJQsqaUBKTNV-1">
                    <mxGeometry x="170" y="3130" width="120" height="60" as="geometry"/>
                </mxCell>
                <mxCell id="IbffwZVj77q_SS6-gmPp-141" style="edgeStyle=none;html=1;fontSize=12;entryX=0;entryY=0.5;entryDx=0;entryDy=0;fontColor=#F0F0F0;" edge="1" parent="WIyWlLk6GJQsqaUBKTNV-1" source="IbffwZVj77q_SS6-gmPp-146" target="IbffwZVj77q_SS6-gmPp-152">
                    <mxGeometry relative="1" as="geometry">
                        <mxPoint x="400" y="3860" as="targetPoint"/>
                        <Array as="points">
                            <mxPoint x="370" y="3260"/>
                        </Array>
                    </mxGeometry>
                </mxCell>
                <mxCell id="IbffwZVj77q_SS6-gmPp-142" value="esc" style="edgeLabel;html=1;align=center;verticalAlign=middle;resizable=0;points=[];fontSize=12;fontColor=#F0F0F0;" vertex="1" connectable="0" parent="IbffwZVj77q_SS6-gmPp-141">
                    <mxGeometry x="-0.8723" y="-2" relative="1" as="geometry">
                        <mxPoint x="29" y="-2" as="offset"/>
                    </mxGeometry>
                </mxCell>
                <mxCell id="IbffwZVj77q_SS6-gmPp-143" style="edgeStyle=none;html=1;fontSize=12;entryX=0;entryY=0.5;entryDx=0;entryDy=0;fontColor=#F0F0F0;" edge="1" parent="WIyWlLk6GJQsqaUBKTNV-1" source="IbffwZVj77q_SS6-gmPp-146" target="IbffwZVj77q_SS6-gmPp-154">
                    <mxGeometry relative="1" as="geometry">
                        <mxPoint x="130" y="3260" as="targetPoint"/>
                        <Array as="points">
                            <mxPoint x="130" y="3260"/>
                            <mxPoint x="130" y="3470"/>
                        </Array>
                    </mxGeometry>
                </mxCell>
                <mxCell id="IbffwZVj77q_SS6-gmPp-144" value="&lt;font style=&quot;font-size: 12px;&quot;&gt;space&lt;/font&gt;" style="edgeLabel;html=1;align=center;verticalAlign=middle;resizable=0;points=[];fontSize=8;fontColor=#F0F0F0;" vertex="1" connectable="0" parent="IbffwZVj77q_SS6-gmPp-143">
                    <mxGeometry x="-0.1556" y="-2" relative="1" as="geometry">
                        <mxPoint x="37" y="-71" as="offset"/>
                    </mxGeometry>
                </mxCell>
                <mxCell id="IbffwZVj77q_SS6-gmPp-145" value="" style="edgeStyle=none;html=1;fontSize=10;fontColor=#F0F0F0;" edge="1" parent="WIyWlLk6GJQsqaUBKTNV-1" source="IbffwZVj77q_SS6-gmPp-146" target="IbffwZVj77q_SS6-gmPp-162">
                    <mxGeometry relative="1" as="geometry"/>
                </mxCell>
                <mxCell id="IbffwZVj77q_SS6-gmPp-146" value="check input" style="rhombus;whiteSpace=wrap;html=1;fontSize=10;fontColor=#F0F0F0;" vertex="1" parent="WIyWlLk6GJQsqaUBKTNV-1">
                    <mxGeometry x="190" y="3220" width="80" height="80" as="geometry"/>
                </mxCell>
                <mxCell id="IbffwZVj77q_SS6-gmPp-147" value="" style="shape=internalStorage;whiteSpace=wrap;html=1;backgroundOutline=1;fontSize=10;fontColor=#F0F0F0;" vertex="1" parent="WIyWlLk6GJQsqaUBKTNV-1">
                    <mxGeometry x="155" y="3610" width="150" height="170" as="geometry"/>
                </mxCell>
                <mxCell id="IbffwZVj77q_SS6-gmPp-148" style="edgeStyle=none;html=1;fontSize=12;fontColor=#F0F0F0;" edge="1" parent="WIyWlLk6GJQsqaUBKTNV-1" source="IbffwZVj77q_SS6-gmPp-149" target="IbffwZVj77q_SS6-gmPp-147">
                    <mxGeometry relative="1" as="geometry"/>
                </mxCell>
                <mxCell id="IbffwZVj77q_SS6-gmPp-149" value="&lt;font style=&quot;font-size: 12px;&quot;&gt;stack frame&lt;/font&gt;" style="text;html=1;strokeColor=none;fillColor=none;align=center;verticalAlign=middle;whiteSpace=wrap;rounded=0;fontSize=10;fontColor=#F0F0F0;" vertex="1" parent="WIyWlLk6GJQsqaUBKTNV-1">
                    <mxGeometry x="190" y="3610" width="80" height="20" as="geometry"/>
                </mxCell>
                <mxCell id="IbffwZVj77q_SS6-gmPp-150" value="" style="endArrow=none;html=1;fontSize=10;exitX=0;exitY=0.25;exitDx=0;exitDy=0;entryX=1;entryY=0.25;entryDx=0;entryDy=0;fontColor=#F0F0F0;" edge="1" parent="WIyWlLk6GJQsqaUBKTNV-1" source="IbffwZVj77q_SS6-gmPp-147" target="IbffwZVj77q_SS6-gmPp-147">
                    <mxGeometry width="50" height="50" relative="1" as="geometry">
                        <mxPoint x="220" y="3710" as="sourcePoint"/>
                        <mxPoint x="270" y="3660" as="targetPoint"/>
                    </mxGeometry>
                </mxCell>
                <mxCell id="IbffwZVj77q_SS6-gmPp-151" value="&lt;font style=&quot;font-size: 8px;&quot;&gt;BP&lt;/font&gt;" style="text;html=1;strokeColor=none;fillColor=none;align=center;verticalAlign=middle;whiteSpace=wrap;rounded=0;fontSize=10;fontColor=#F0F0F0;" vertex="1" parent="WIyWlLk6GJQsqaUBKTNV-1">
                    <mxGeometry x="155" y="3630" width="20" height="20" as="geometry"/>
                </mxCell>
                <mxCell id="IbffwZVj77q_SS6-gmPp-152" value="end program" style="rounded=0;whiteSpace=wrap;html=1;fontSize=12;fontColor=#F0F0F0;" vertex="1" parent="WIyWlLk6GJQsqaUBKTNV-1">
                    <mxGeometry x="440" y="3230" width="120" height="60" as="geometry"/>
                </mxCell>
                <mxCell id="IbffwZVj77q_SS6-gmPp-153" value="" style="edgeStyle=none;html=1;fontSize=12;fontColor=#F0F0F0;" edge="1" parent="WIyWlLk6GJQsqaUBKTNV-1" source="IbffwZVj77q_SS6-gmPp-154" target="IbffwZVj77q_SS6-gmPp-156">
                    <mxGeometry relative="1" as="geometry"/>
                </mxCell>
                <mxCell id="IbffwZVj77q_SS6-gmPp-154" value="print input" style="rounded=0;whiteSpace=wrap;html=1;fontSize=12;fontColor=#F0F0F0;" vertex="1" parent="WIyWlLk6GJQsqaUBKTNV-1">
                    <mxGeometry x="170" y="3440" width="120" height="60" as="geometry"/>
                </mxCell>
                <mxCell id="IbffwZVj77q_SS6-gmPp-155" value="" style="edgeStyle=none;html=1;fontSize=12;fontColor=#F0F0F0;" edge="1" parent="WIyWlLk6GJQsqaUBKTNV-1" source="IbffwZVj77q_SS6-gmPp-156" target="IbffwZVj77q_SS6-gmPp-149">
                    <mxGeometry relative="1" as="geometry"/>
                </mxCell>
                <mxCell id="IbffwZVj77q_SS6-gmPp-156" value="push input" style="rounded=0;whiteSpace=wrap;html=1;fontSize=12;fontColor=#F0F0F0;" vertex="1" parent="WIyWlLk6GJQsqaUBKTNV-1">
                    <mxGeometry x="170" y="3520" width="120" height="60" as="geometry"/>
                </mxCell>
                <mxCell id="IbffwZVj77q_SS6-gmPp-157" value="" style="endArrow=none;html=1;fontSize=10;exitX=0;exitY=0.25;exitDx=0;exitDy=0;entryX=1;entryY=0.25;entryDx=0;entryDy=0;fontColor=#F0F0F0;" edge="1" parent="WIyWlLk6GJQsqaUBKTNV-1">
                    <mxGeometry width="50" height="50" relative="1" as="geometry">
                        <mxPoint x="155" y="3670.9999999999995" as="sourcePoint"/>
                        <mxPoint x="305" y="3670.9999999999995" as="targetPoint"/>
                    </mxGeometry>
                </mxCell>
                <mxCell id="IbffwZVj77q_SS6-gmPp-158" value="&lt;font style=&quot;font-size: 8px;&quot;&gt;SP&lt;/font&gt;" style="text;html=1;strokeColor=none;fillColor=none;align=center;verticalAlign=middle;whiteSpace=wrap;rounded=0;fontSize=12;fontColor=#F0F0F0;" vertex="1" parent="WIyWlLk6GJQsqaUBKTNV-1">
                    <mxGeometry x="155" y="3730" width="19" height="16" as="geometry"/>
                </mxCell>
                <mxCell id="IbffwZVj77q_SS6-gmPp-159" value="&lt;font style=&quot;font-size: 10px;&quot;&gt;input 1&lt;/font&gt;" style="text;html=1;strokeColor=none;fillColor=none;align=center;verticalAlign=middle;whiteSpace=wrap;rounded=0;fontSize=8;fontColor=#F0F0F0;" vertex="1" parent="WIyWlLk6GJQsqaUBKTNV-1">
                    <mxGeometry x="200" y="3653" width="60" height="17" as="geometry"/>
                </mxCell>
                <mxCell id="IbffwZVj77q_SS6-gmPp-160" value="" style="edgeStyle=none;html=1;fontSize=10;fontColor=#F0F0F0;" edge="1" parent="WIyWlLk6GJQsqaUBKTNV-1" source="IbffwZVj77q_SS6-gmPp-162" target="IbffwZVj77q_SS6-gmPp-154">
                    <mxGeometry relative="1" as="geometry"/>
                </mxCell>
                <mxCell id="IbffwZVj77q_SS6-gmPp-161" value="digit" style="edgeLabel;html=1;align=center;verticalAlign=middle;resizable=0;points=[];fontSize=10;fontColor=#F0F0F0;" vertex="1" connectable="0" parent="IbffwZVj77q_SS6-gmPp-160">
                    <mxGeometry x="-0.1" relative="1" as="geometry">
                        <mxPoint as="offset"/>
                    </mxGeometry>
                </mxCell>
                <mxCell id="IbffwZVj77q_SS6-gmPp-162" value="&lt;font style=&quot;font-size: 10px;&quot;&gt;check input&lt;/font&gt;" style="rhombus;whiteSpace=wrap;html=1;fontSize=6;fontColor=#F0F0F0;" vertex="1" parent="WIyWlLk6GJQsqaUBKTNV-1">
                    <mxGeometry x="190" y="3320" width="80" height="80" as="geometry"/>
                </mxCell>
                <mxCell id="IbffwZVj77q_SS6-gmPp-163" value="" style="endArrow=none;html=1;fontSize=10;exitX=0;exitY=0.25;exitDx=0;exitDy=0;entryX=1;entryY=0.25;entryDx=0;entryDy=0;fontColor=#F0F0F0;" edge="1" parent="WIyWlLk6GJQsqaUBKTNV-1">
                    <mxGeometry width="50" height="50" relative="1" as="geometry">
                        <mxPoint x="155" y="3690" as="sourcePoint"/>
                        <mxPoint x="305" y="3690" as="targetPoint"/>
                    </mxGeometry>
                </mxCell>
                <mxCell id="IbffwZVj77q_SS6-gmPp-164" value="input 2" style="text;html=1;strokeColor=none;fillColor=none;align=center;verticalAlign=middle;whiteSpace=wrap;rounded=0;fontSize=10;fontColor=#F0F0F0;" vertex="1" parent="WIyWlLk6GJQsqaUBKTNV-1">
                    <mxGeometry x="200" y="3670" width="60" height="20" as="geometry"/>
                </mxCell>
                <mxCell id="IbffwZVj77q_SS6-gmPp-165" value="" style="endArrow=none;html=1;fontSize=10;exitX=0;exitY=0.25;exitDx=0;exitDy=0;entryX=1;entryY=0.25;entryDx=0;entryDy=0;fontColor=#F0F0F0;" edge="1" parent="WIyWlLk6GJQsqaUBKTNV-1">
                    <mxGeometry width="50" height="50" relative="1" as="geometry">
                        <mxPoint x="155" y="3709" as="sourcePoint"/>
                        <mxPoint x="305" y="3709" as="targetPoint"/>
                    </mxGeometry>
                </mxCell>
                <mxCell id="IbffwZVj77q_SS6-gmPp-166" value="input 3" style="text;html=1;strokeColor=none;fillColor=none;align=center;verticalAlign=middle;whiteSpace=wrap;rounded=0;fontSize=10;fontColor=#F0F0F0;" vertex="1" parent="WIyWlLk6GJQsqaUBKTNV-1">
                    <mxGeometry x="200" y="3693" width="60" height="13" as="geometry"/>
                </mxCell>
                <mxCell id="IbffwZVj77q_SS6-gmPp-167" value="" style="endArrow=none;html=1;fontSize=10;exitX=0;exitY=0.25;exitDx=0;exitDy=0;entryX=1;entryY=0.25;entryDx=0;entryDy=0;fontColor=#F0F0F0;" edge="1" parent="WIyWlLk6GJQsqaUBKTNV-1">
                    <mxGeometry width="50" height="50" relative="1" as="geometry">
                        <mxPoint x="155" y="3728" as="sourcePoint"/>
                        <mxPoint x="305" y="3728" as="targetPoint"/>
                    </mxGeometry>
                </mxCell>
                <mxCell id="IbffwZVj77q_SS6-gmPp-168" value="input 4" style="text;html=1;strokeColor=none;fillColor=none;align=center;verticalAlign=middle;whiteSpace=wrap;rounded=0;fontSize=10;fontColor=#F0F0F0;" vertex="1" parent="WIyWlLk6GJQsqaUBKTNV-1">
                    <mxGeometry x="200" y="3712" width="60" height="13" as="geometry"/>
                </mxCell>
                <mxCell id="IbffwZVj77q_SS6-gmPp-169" value="" style="endArrow=none;html=1;fontSize=10;exitX=0;exitY=0.25;exitDx=0;exitDy=0;entryX=1;entryY=0.25;entryDx=0;entryDy=0;fontColor=#F0F0F0;" edge="1" parent="WIyWlLk6GJQsqaUBKTNV-1">
                    <mxGeometry width="50" height="50" relative="1" as="geometry">
                        <mxPoint x="156" y="3747" as="sourcePoint"/>
                        <mxPoint x="306" y="3747" as="targetPoint"/>
                    </mxGeometry>
                </mxCell>
                <mxCell id="IbffwZVj77q_SS6-gmPp-170" value="input 5" style="text;html=1;strokeColor=none;fillColor=none;align=center;verticalAlign=middle;whiteSpace=wrap;rounded=0;fontSize=10;fontColor=#F0F0F0;" vertex="1" parent="WIyWlLk6GJQsqaUBKTNV-1">
                    <mxGeometry x="200" y="3731.5" width="60" height="13" as="geometry"/>
                </mxCell>
                <mxCell id="IbffwZVj77q_SS6-gmPp-173" style="edgeStyle=none;html=1;fontSize=10;entryX=1;entryY=0.5;entryDx=0;entryDy=0;exitX=1;exitY=0.5;exitDx=0;exitDy=0;fontColor=#F0F0F0;" edge="1" parent="WIyWlLk6GJQsqaUBKTNV-1" source="IbffwZVj77q_SS6-gmPp-102">
                    <mxGeometry relative="1" as="geometry">
                        <mxPoint x="280" y="1090" as="targetPoint"/>
                        <mxPoint x="280" y="1980" as="sourcePoint"/>
                        <Array as="points">
                            <mxPoint x="400" y="1984"/>
                            <mxPoint x="400" y="1090"/>
                        </Array>
                    </mxGeometry>
                </mxCell>
                <mxCell id="IbffwZVj77q_SS6-gmPp-174" value="backspace" style="edgeLabel;html=1;align=center;verticalAlign=middle;resizable=0;points=[];fontSize=10;fontColor=#F0F0F0;" vertex="1" connectable="0" parent="IbffwZVj77q_SS6-gmPp-173">
                    <mxGeometry x="-0.9008" y="-2" relative="1" as="geometry">
                        <mxPoint y="-2" as="offset"/>
                    </mxGeometry>
                </mxCell>
                <mxCell id="IbffwZVj77q_SS6-gmPp-175" style="edgeStyle=none;html=1;fontSize=10;entryX=0.942;entryY=0.627;entryDx=0;entryDy=0;exitX=1;exitY=0.5;exitDx=0;exitDy=0;entryPerimeter=0;fontColor=#F0F0F0;" edge="1" parent="WIyWlLk6GJQsqaUBKTNV-1" source="IbffwZVj77q_SS6-gmPp-131" target="IbffwZVj77q_SS6-gmPp-80">
                    <mxGeometry relative="1" as="geometry">
                        <mxPoint x="250" y="1790" as="targetPoint"/>
                        <mxPoint x="240" y="2684" as="sourcePoint"/>
                        <Array as="points">
                            <mxPoint x="360" y="2684"/>
                            <mxPoint x="360" y="1792"/>
                        </Array>
                    </mxGeometry>
                </mxCell>
                <mxCell id="IbffwZVj77q_SS6-gmPp-176" value="backspace" style="edgeLabel;html=1;align=center;verticalAlign=middle;resizable=0;points=[];fontSize=10;fontColor=#F0F0F0;" vertex="1" connectable="0" parent="IbffwZVj77q_SS6-gmPp-175">
                    <mxGeometry x="-0.9008" y="-2" relative="1" as="geometry">
                        <mxPoint y="-2" as="offset"/>
                    </mxGeometry>
                </mxCell>
                <mxCell id="IbffwZVj77q_SS6-gmPp-177" style="edgeStyle=none;html=1;fontSize=10;entryX=1;entryY=0.5;entryDx=0;entryDy=0;exitX=1;exitY=0.5;exitDx=0;exitDy=0;fontColor=#F0F0F0;" edge="1" parent="WIyWlLk6GJQsqaUBKTNV-1" source="IbffwZVj77q_SS6-gmPp-162" target="IbffwZVj77q_SS6-gmPp-109">
                    <mxGeometry relative="1" as="geometry">
                        <mxPoint x="323.03999999999996" y="2476" as="targetPoint"/>
                        <mxPoint x="310" y="3364.38" as="sourcePoint"/>
                        <Array as="points">
                            <mxPoint x="400" y="3360"/>
                            <mxPoint x="400" y="2480"/>
                        </Array>
                    </mxGeometry>
                </mxCell>
                <mxCell id="IbffwZVj77q_SS6-gmPp-178" value="backspace" style="edgeLabel;html=1;align=center;verticalAlign=middle;resizable=0;points=[];fontSize=10;fontColor=#F0F0F0;" vertex="1" connectable="0" parent="IbffwZVj77q_SS6-gmPp-177">
                    <mxGeometry x="-0.9008" y="-2" relative="1" as="geometry">
                        <mxPoint y="-2" as="offset"/>
                    </mxGeometry>
                </mxCell>
                <mxCell id="IbffwZVj77q_SS6-gmPp-182" value="" style="shape=curlyBracket;whiteSpace=wrap;html=1;rounded=1;flipH=1;labelPosition=right;verticalLabelPosition=middle;align=left;verticalAlign=middle;fontSize=10;fontColor=#F0F0F0;" vertex="1" parent="WIyWlLk6GJQsqaUBKTNV-1">
                    <mxGeometry x="305" y="3660" width="20" height="20" as="geometry"/>
                </mxCell>
                <mxCell id="IbffwZVj77q_SS6-gmPp-190" value="" style="edgeStyle=none;html=1;fontSize=10;fontColor=#F0F0F0;" edge="1" parent="WIyWlLk6GJQsqaUBKTNV-1" source="IbffwZVj77q_SS6-gmPp-183" target="IbffwZVj77q_SS6-gmPp-189">
                    <mxGeometry relative="1" as="geometry"/>
                </mxCell>
                <mxCell id="IbffwZVj77q_SS6-gmPp-244" style="edgeStyle=none;html=1;exitX=0.5;exitY=0;exitDx=0;exitDy=0;fontSize=10;fontColor=#F0F0F0;entryX=0;entryY=0.5;entryDx=0;entryDy=0;" edge="1" parent="WIyWlLk6GJQsqaUBKTNV-1" source="IbffwZVj77q_SS6-gmPp-183" target="IbffwZVj77q_SS6-gmPp-230">
                    <mxGeometry relative="1" as="geometry">
                        <mxPoint x="930" y="3050" as="targetPoint"/>
                        <Array as="points">
                            <mxPoint x="350" y="3430"/>
                            <mxPoint x="510" y="3430"/>
                            <mxPoint x="510" y="3340"/>
                            <mxPoint x="930" y="3340"/>
                            <mxPoint x="930" y="3049"/>
                        </Array>
                    </mxGeometry>
                </mxCell>
                <mxCell id="IbffwZVj77q_SS6-gmPp-183" value="numeber 1" style="text;html=1;strokeColor=none;fillColor=none;align=center;verticalAlign=middle;whiteSpace=wrap;rounded=0;fontSize=10;fontColor=#F0F0F0;" vertex="1" parent="WIyWlLk6GJQsqaUBKTNV-1">
                    <mxGeometry x="325" y="3660" width="55" height="20" as="geometry"/>
                </mxCell>
                <mxCell id="IbffwZVj77q_SS6-gmPp-184" value="" style="shape=curlyBracket;whiteSpace=wrap;html=1;rounded=1;flipH=1;labelPosition=right;verticalLabelPosition=middle;align=left;verticalAlign=middle;fontSize=10;fontColor=#F0F0F0;" vertex="1" parent="WIyWlLk6GJQsqaUBKTNV-1">
                    <mxGeometry x="305" y="3720" width="20" height="20" as="geometry"/>
                </mxCell>
                <mxCell id="IbffwZVj77q_SS6-gmPp-193" style="edgeStyle=none;html=1;entryX=0.081;entryY=0.408;entryDx=0;entryDy=0;fontSize=10;fontColor=#F0F0F0;entryPerimeter=0;" edge="1" parent="WIyWlLk6GJQsqaUBKTNV-1" source="IbffwZVj77q_SS6-gmPp-185" target="IbffwZVj77q_SS6-gmPp-192">
                    <mxGeometry relative="1" as="geometry"/>
                </mxCell>
                <mxCell id="IbffwZVj77q_SS6-gmPp-245" style="edgeStyle=none;html=1;exitX=0.5;exitY=1;exitDx=0;exitDy=0;fontSize=10;fontColor=#F0F0F0;entryX=1;entryY=0.5;entryDx=0;entryDy=0;" edge="1" parent="WIyWlLk6GJQsqaUBKTNV-1" source="IbffwZVj77q_SS6-gmPp-185" target="IbffwZVj77q_SS6-gmPp-230">
                    <mxGeometry relative="1" as="geometry">
                        <mxPoint x="1270" y="3160" as="targetPoint"/>
                        <Array as="points">
                            <mxPoint x="350" y="3900"/>
                            <mxPoint x="1270" y="3900"/>
                            <mxPoint x="1270" y="3049"/>
                        </Array>
                    </mxGeometry>
                </mxCell>
                <mxCell id="IbffwZVj77q_SS6-gmPp-185" value="numeber 2" style="text;html=1;strokeColor=none;fillColor=none;align=center;verticalAlign=middle;whiteSpace=wrap;rounded=0;fontSize=10;fontColor=#F0F0F0;" vertex="1" parent="WIyWlLk6GJQsqaUBKTNV-1">
                    <mxGeometry x="325" y="3720" width="55" height="20" as="geometry"/>
                </mxCell>
                <mxCell id="IbffwZVj77q_SS6-gmPp-191" value="" style="edgeStyle=none;html=1;fontSize=10;fontColor=#F0F0F0;entryX=0;entryY=0.25;entryDx=0;entryDy=0;" edge="1" parent="WIyWlLk6GJQsqaUBKTNV-1" source="IbffwZVj77q_SS6-gmPp-189" target="IbffwZVj77q_SS6-gmPp-203">
                    <mxGeometry relative="1" as="geometry">
                        <mxPoint x="560" y="3462.5" as="targetPoint"/>
                    </mxGeometry>
                </mxCell>
                <mxCell id="IbffwZVj77q_SS6-gmPp-196" style="edgeStyle=none;html=1;entryX=0.5;entryY=1;entryDx=0;entryDy=0;fontSize=10;fontColor=#F0F0F0;" edge="1" parent="WIyWlLk6GJQsqaUBKTNV-1" source="IbffwZVj77q_SS6-gmPp-189" target="IbffwZVj77q_SS6-gmPp-195">
                    <mxGeometry relative="1" as="geometry"/>
                </mxCell>
                <mxCell id="IbffwZVj77q_SS6-gmPp-197" value="zero" style="edgeLabel;html=1;align=center;verticalAlign=middle;resizable=0;points=[];fontSize=10;fontColor=#F0F0F0;" vertex="1" connectable="0" parent="IbffwZVj77q_SS6-gmPp-196">
                    <mxGeometry x="-0.2142" relative="1" as="geometry">
                        <mxPoint as="offset"/>
                    </mxGeometry>
                </mxCell>
                <mxCell id="IbffwZVj77q_SS6-gmPp-189" value="check" style="rhombus;whiteSpace=wrap;html=1;fontSize=10;fontColor=#F0F0F0;" vertex="1" parent="WIyWlLk6GJQsqaUBKTNV-1">
                    <mxGeometry x="410" y="3622" width="60" height="58" as="geometry"/>
                </mxCell>
                <mxCell id="IbffwZVj77q_SS6-gmPp-194" style="edgeStyle=none;html=1;fontSize=10;fontColor=#F0F0F0;" edge="1" parent="WIyWlLk6GJQsqaUBKTNV-1" source="IbffwZVj77q_SS6-gmPp-192">
                    <mxGeometry relative="1" as="geometry">
                        <mxPoint x="570" y="3741" as="targetPoint"/>
                    </mxGeometry>
                </mxCell>
                <mxCell id="IbffwZVj77q_SS6-gmPp-199" style="edgeStyle=none;html=1;entryX=0.5;entryY=0;entryDx=0;entryDy=0;fontSize=10;fontColor=#F0F0F0;" edge="1" parent="WIyWlLk6GJQsqaUBKTNV-1" source="IbffwZVj77q_SS6-gmPp-192" target="IbffwZVj77q_SS6-gmPp-198">
                    <mxGeometry relative="1" as="geometry"/>
                </mxCell>
                <mxCell id="IbffwZVj77q_SS6-gmPp-200" value="zero" style="edgeLabel;html=1;align=center;verticalAlign=middle;resizable=0;points=[];fontSize=10;fontColor=#F0F0F0;" vertex="1" connectable="0" parent="IbffwZVj77q_SS6-gmPp-199">
                    <mxGeometry x="-0.222" relative="1" as="geometry">
                        <mxPoint as="offset"/>
                    </mxGeometry>
                </mxCell>
                <mxCell id="IbffwZVj77q_SS6-gmPp-192" value="check" style="rhombus;whiteSpace=wrap;html=1;fontSize=10;fontColor=#F0F0F0;" vertex="1" parent="WIyWlLk6GJQsqaUBKTNV-1">
                    <mxGeometry x="410" y="3712" width="60" height="58" as="geometry"/>
                </mxCell>
                <mxCell id="IbffwZVj77q_SS6-gmPp-195" value="WARNING" style="shape=parallelogram;perimeter=parallelogramPerimeter;whiteSpace=wrap;html=1;fixedSize=1;fontSize=10;fontColor=#F0F0F0;" vertex="1" parent="WIyWlLk6GJQsqaUBKTNV-1">
                    <mxGeometry x="360" y="3490" width="120" height="60" as="geometry"/>
                </mxCell>
                <mxCell id="IbffwZVj77q_SS6-gmPp-198" value="WARNING" style="shape=parallelogram;perimeter=parallelogramPerimeter;whiteSpace=wrap;html=1;fixedSize=1;fontSize=10;fontColor=#F0F0F0;" vertex="1" parent="WIyWlLk6GJQsqaUBKTNV-1">
                    <mxGeometry x="380" y="3810" width="120" height="60" as="geometry"/>
                </mxCell>
                <mxCell id="IbffwZVj77q_SS6-gmPp-203" value="&lt;span style=&quot;font-family: Arial, sans-serif; font-size: 20px; font-weight: 400; text-align: left;&quot;&gt;Euclidean&amp;nbsp;&lt;/span&gt;&lt;span style=&quot;font-family: Arial, sans-serif; font-size: 20px; font-weight: 400; text-align: left;&quot;&gt;algorithm&lt;/span&gt;" style="swimlane;whiteSpace=wrap;html=1;fontSize=10;fontColor=#F0F0F0;startSize=60;" vertex="1" parent="WIyWlLk6GJQsqaUBKTNV-1">
                    <mxGeometry x="570" y="3370" width="470" height="400" as="geometry"/>
                </mxCell>
                <mxCell id="IbffwZVj77q_SS6-gmPp-210" style="edgeStyle=none;html=1;fontSize=10;fontColor=#F0F0F0;exitX=0.3;exitY=1.094;exitDx=0;exitDy=0;exitPerimeter=0;" edge="1" parent="IbffwZVj77q_SS6-gmPp-203" source="IbffwZVj77q_SS6-gmPp-205">
                    <mxGeometry relative="1" as="geometry">
                        <mxPoint x="50" y="180" as="targetPoint"/>
                        <Array as="points">
                            <mxPoint x="194" y="140"/>
                            <mxPoint x="50" y="140"/>
                            <mxPoint x="50" y="175"/>
                        </Array>
                    </mxGeometry>
                </mxCell>
                <mxCell id="IbffwZVj77q_SS6-gmPp-205" value="number 2" style="text;strokeColor=none;fillColor=none;align=left;verticalAlign=middle;spacingLeft=4;spacingRight=4;overflow=hidden;points=[[0,0.5],[1,0.5]];portConstraint=eastwest;rotatable=0;whiteSpace=wrap;html=1;fontSize=10;fontColor=#F0F0F0;" vertex="1" parent="IbffwZVj77q_SS6-gmPp-203">
                    <mxGeometry x="170" y="90" width="80" height="30" as="geometry"/>
                </mxCell>
                <mxCell id="IbffwZVj77q_SS6-gmPp-204" value="number 1" style="text;strokeColor=none;fillColor=none;align=left;verticalAlign=middle;spacingLeft=4;spacingRight=4;overflow=hidden;points=[[0,0.5],[1,0.5]];portConstraint=eastwest;rotatable=0;whiteSpace=wrap;html=1;fontSize=10;fontColor=#F0F0F0;" vertex="1" parent="IbffwZVj77q_SS6-gmPp-203">
                    <mxGeometry x="30" y="90" width="80" height="30" as="geometry"/>
                </mxCell>
                <mxCell id="IbffwZVj77q_SS6-gmPp-206" value="div" style="rounded=0;whiteSpace=wrap;html=1;fontSize=10;fontColor=#F0F0F0;" vertex="1" parent="IbffwZVj77q_SS6-gmPp-203">
                    <mxGeometry x="100" y="90" width="50" height="30" as="geometry"/>
                </mxCell>
                <mxCell id="IbffwZVj77q_SS6-gmPp-207" value="quotient 1" style="text;html=1;strokeColor=none;fillColor=none;align=center;verticalAlign=middle;whiteSpace=wrap;rounded=0;fontSize=10;fontColor=#F0F0F0;" vertex="1" parent="IbffwZVj77q_SS6-gmPp-203">
                    <mxGeometry x="270" y="90" width="60" height="30" as="geometry"/>
                </mxCell>
                <mxCell id="IbffwZVj77q_SS6-gmPp-208" value="mod 1" style="text;html=1;strokeColor=none;fillColor=none;align=center;verticalAlign=middle;whiteSpace=wrap;rounded=0;fontSize=10;fontColor=#F0F0F0;" vertex="1" parent="IbffwZVj77q_SS6-gmPp-203">
                    <mxGeometry x="360" y="90" width="60" height="30" as="geometry"/>
                </mxCell>
                <mxCell id="IbffwZVj77q_SS6-gmPp-209" value="div" style="rounded=0;whiteSpace=wrap;html=1;fontSize=10;fontColor=#F0F0F0;" vertex="1" parent="IbffwZVj77q_SS6-gmPp-203">
                    <mxGeometry x="100" y="160" width="50" height="30" as="geometry"/>
                </mxCell>
                <mxCell id="IbffwZVj77q_SS6-gmPp-211" style="edgeStyle=none;html=1;fontSize=10;fontColor=#F0F0F0;exitX=0.5;exitY=1;exitDx=0;exitDy=0;" edge="1" parent="IbffwZVj77q_SS6-gmPp-203" source="IbffwZVj77q_SS6-gmPp-208">
                    <mxGeometry relative="1" as="geometry">
                        <mxPoint x="294" y="119.99999999999955" as="sourcePoint"/>
                        <mxPoint x="190" y="180" as="targetPoint"/>
                        <Array as="points">
                            <mxPoint x="390" y="150"/>
                            <mxPoint x="294" y="150"/>
                            <mxPoint x="190" y="150"/>
                        </Array>
                    </mxGeometry>
                </mxCell>
                <mxCell id="IbffwZVj77q_SS6-gmPp-212" value="quotient 2" style="text;html=1;strokeColor=none;fillColor=none;align=center;verticalAlign=middle;whiteSpace=wrap;rounded=0;fontSize=10;fontColor=#F0F0F0;" vertex="1" parent="IbffwZVj77q_SS6-gmPp-203">
                    <mxGeometry x="270" y="160" width="60" height="30" as="geometry"/>
                </mxCell>
                <mxCell id="IbffwZVj77q_SS6-gmPp-219" style="edgeStyle=none;html=1;exitX=0.5;exitY=1.04;exitDx=0;exitDy=0;entryX=0.5;entryY=0;entryDx=0;entryDy=0;fontSize=10;fontColor=#F0F0F0;exitPerimeter=0;" edge="1" parent="IbffwZVj77q_SS6-gmPp-203" source="IbffwZVj77q_SS6-gmPp-226" target="IbffwZVj77q_SS6-gmPp-218">
                    <mxGeometry relative="1" as="geometry"/>
                </mxCell>
                <mxCell id="IbffwZVj77q_SS6-gmPp-217" value="quotient n" style="text;html=1;strokeColor=none;fillColor=none;align=center;verticalAlign=middle;whiteSpace=wrap;rounded=0;fontSize=10;fontColor=#F0F0F0;" vertex="1" parent="IbffwZVj77q_SS6-gmPp-203">
                    <mxGeometry x="270" y="230" width="60" height="30" as="geometry"/>
                </mxCell>
                <mxCell id="IbffwZVj77q_SS6-gmPp-218" value="if mod = 0" style="rhombus;whiteSpace=wrap;html=1;fontSize=10;fontColor=#F0F0F0;" vertex="1" parent="IbffwZVj77q_SS6-gmPp-203">
                    <mxGeometry x="350" y="290" width="80" height="80" as="geometry"/>
                </mxCell>
                <mxCell id="IbffwZVj77q_SS6-gmPp-221" style="edgeStyle=none;html=1;exitX=0.5;exitY=1;exitDx=0;exitDy=0;entryX=0;entryY=0.5;entryDx=0;entryDy=0;fontSize=10;fontColor=#F0F0F0;" edge="1" parent="IbffwZVj77q_SS6-gmPp-203" source="IbffwZVj77q_SS6-gmPp-220" target="IbffwZVj77q_SS6-gmPp-218">
                    <mxGeometry relative="1" as="geometry">
                        <Array as="points">
                            <mxPoint x="50" y="330"/>
                        </Array>
                    </mxGeometry>
                </mxCell>
                <mxCell id="IbffwZVj77q_SS6-gmPp-220" value="mod n-1" style="text;html=1;strokeColor=none;fillColor=none;align=center;verticalAlign=middle;whiteSpace=wrap;rounded=0;fontSize=10;fontColor=#F0F0F0;" vertex="1" parent="IbffwZVj77q_SS6-gmPp-203">
                    <mxGeometry x="21" y="240" width="60" height="30" as="geometry"/>
                </mxCell>
                <mxCell id="IbffwZVj77q_SS6-gmPp-225" value="mod 2" style="text;html=1;strokeColor=none;fillColor=none;align=center;verticalAlign=middle;whiteSpace=wrap;rounded=0;fontSize=10;fontColor=#F0F0F0;" vertex="1" parent="IbffwZVj77q_SS6-gmPp-203">
                    <mxGeometry x="360" y="160" width="60" height="30" as="geometry"/>
                </mxCell>
                <mxCell id="IbffwZVj77q_SS6-gmPp-226" value="mod n" style="text;html=1;align=center;verticalAlign=middle;resizable=0;points=[];autosize=1;strokeColor=none;fillColor=none;fontSize=10;fontColor=#F0F0F0;" vertex="1" parent="IbffwZVj77q_SS6-gmPp-203">
                    <mxGeometry x="365" y="230" width="50" height="30" as="geometry"/>
                </mxCell>
                <mxCell id="IbffwZVj77q_SS6-gmPp-227" value="" style="endArrow=none;dashed=1;html=1;dashPattern=1 3;strokeWidth=2;fontSize=10;fontColor=#F0F0F0;" edge="1" parent="IbffwZVj77q_SS6-gmPp-203">
                    <mxGeometry width="50" height="50" relative="1" as="geometry">
                        <mxPoint x="10" y="199.5" as="sourcePoint"/>
                        <mxPoint x="460" y="199.5" as="targetPoint"/>
                    </mxGeometry>
                </mxCell>
                <mxCell id="IbffwZVj77q_SS6-gmPp-214" style="edgeStyle=none;html=1;fontSize=10;fontColor=#F0F0F0;exitX=0.3;exitY=1.094;exitDx=0;exitDy=0;exitPerimeter=0;" edge="1" parent="WIyWlLk6GJQsqaUBKTNV-1">
                    <mxGeometry relative="1" as="geometry">
                        <mxPoint x="764" y="3559.8199999999997" as="sourcePoint"/>
                        <mxPoint x="620" y="3616.9999999999995" as="targetPoint"/>
                        <Array as="points">
                            <mxPoint x="764" y="3577"/>
                            <mxPoint x="620" y="3577"/>
                            <mxPoint x="620" y="3612"/>
                        </Array>
                    </mxGeometry>
                </mxCell>
                <mxCell id="IbffwZVj77q_SS6-gmPp-215" value="div" style="rounded=0;whiteSpace=wrap;html=1;fontSize=10;fontColor=#F0F0F0;" vertex="1" parent="WIyWlLk6GJQsqaUBKTNV-1">
                    <mxGeometry x="670" y="3597" width="50" height="30" as="geometry"/>
                </mxCell>
                <mxCell id="IbffwZVj77q_SS6-gmPp-216" style="edgeStyle=none;html=1;fontSize=10;fontColor=#F0F0F0;exitX=0.5;exitY=1;exitDx=0;exitDy=0;" edge="1" parent="WIyWlLk6GJQsqaUBKTNV-1">
                    <mxGeometry relative="1" as="geometry">
                        <mxPoint x="960" y="3556.9999999999995" as="sourcePoint"/>
                        <mxPoint x="760" y="3616.9999999999995" as="targetPoint"/>
                        <Array as="points">
                            <mxPoint x="960" y="3587"/>
                            <mxPoint x="864" y="3587"/>
                            <mxPoint x="760" y="3587"/>
                        </Array>
                    </mxGeometry>
                </mxCell>
                <mxCell id="IbffwZVj77q_SS6-gmPp-223" style="edgeStyle=none;html=1;exitX=1;exitY=0.5;exitDx=0;exitDy=0;fontSize=10;fontColor=#F0F0F0;startArrow=none;entryX=0.5;entryY=1;entryDx=0;entryDy=0;" edge="1" parent="WIyWlLk6GJQsqaUBKTNV-1" source="IbffwZVj77q_SS6-gmPp-224" target="IbffwZVj77q_SS6-gmPp-229">
                    <mxGeometry relative="1" as="geometry">
                        <mxPoint x="1170" y="3700.333333333334" as="targetPoint"/>
                        <Array as="points">
                            <mxPoint x="1160" y="3700"/>
                        </Array>
                    </mxGeometry>
                </mxCell>
                <mxCell id="IbffwZVj77q_SS6-gmPp-228" value="" style="edgeStyle=none;html=1;exitX=1;exitY=0.5;exitDx=0;exitDy=0;fontSize=10;fontColor=#F0F0F0;endArrow=none;" edge="1" parent="WIyWlLk6GJQsqaUBKTNV-1" source="IbffwZVj77q_SS6-gmPp-218" target="IbffwZVj77q_SS6-gmPp-224">
                    <mxGeometry relative="1" as="geometry">
                        <mxPoint x="1170.0000000000002" y="3700.333333333334" as="targetPoint"/>
                        <mxPoint x="1000" y="3700" as="sourcePoint"/>
                    </mxGeometry>
                </mxCell>
                <mxCell id="IbffwZVj77q_SS6-gmPp-246" style="edgeStyle=none;html=1;exitX=0.5;exitY=0;exitDx=0;exitDy=0;entryX=0.5;entryY=1;entryDx=0;entryDy=0;fontSize=10;fontColor=#F0F0F0;" edge="1" parent="WIyWlLk6GJQsqaUBKTNV-1" source="IbffwZVj77q_SS6-gmPp-224" target="IbffwZVj77q_SS6-gmPp-230">
                    <mxGeometry relative="1" as="geometry">
                        <Array as="points">
                            <mxPoint x="1110" y="3620"/>
                            <mxPoint x="1080" y="3620"/>
                            <mxPoint x="1080" y="3130"/>
                            <mxPoint x="1160" y="3130"/>
                        </Array>
                    </mxGeometry>
                </mxCell>
                <mxCell id="IbffwZVj77q_SS6-gmPp-224" value="gcd in hex" style="text;html=1;strokeColor=none;fillColor=none;align=center;verticalAlign=middle;whiteSpace=wrap;rounded=0;fontSize=10;fontColor=#F0F0F0;" vertex="1" parent="WIyWlLk6GJQsqaUBKTNV-1">
                    <mxGeometry x="1080" y="3690" width="55" height="20" as="geometry"/>
                </mxCell>
                <mxCell id="IbffwZVj77q_SS6-gmPp-241" style="edgeStyle=none;html=1;exitX=0.5;exitY=0;exitDx=0;exitDy=0;entryX=0.5;entryY=1;entryDx=0;entryDy=0;fontSize=10;fontColor=#F0F0F0;" edge="1" parent="WIyWlLk6GJQsqaUBKTNV-1" source="IbffwZVj77q_SS6-gmPp-229" target="IbffwZVj77q_SS6-gmPp-240">
                    <mxGeometry relative="1" as="geometry"/>
                </mxCell>
                <mxCell id="IbffwZVj77q_SS6-gmPp-229" value="convert to dec" style="rounded=0;whiteSpace=wrap;html=1;fontSize=10;fontColor=#F0F0F0;" vertex="1" parent="WIyWlLk6GJQsqaUBKTNV-1">
                    <mxGeometry x="1100" y="3370" width="120" height="60" as="geometry"/>
                </mxCell>
                <mxCell id="IbffwZVj77q_SS6-gmPp-248" style="edgeStyle=none;html=1;exitX=0.5;exitY=0;exitDx=0;exitDy=0;entryX=0.5;entryY=1;entryDx=0;entryDy=0;fontSize=10;fontColor=#F0F0F0;" edge="1" parent="WIyWlLk6GJQsqaUBKTNV-1" source="IbffwZVj77q_SS6-gmPp-230" target="IbffwZVj77q_SS6-gmPp-239">
                    <mxGeometry relative="1" as="geometry"/>
                </mxCell>
                <mxCell id="IbffwZVj77q_SS6-gmPp-230" value="gcd * lcm = num 1 * num 2&lt;br&gt;calculate lcm" style="rounded=0;whiteSpace=wrap;html=1;fontSize=10;fontColor=#F0F0F0;" vertex="1" parent="WIyWlLk6GJQsqaUBKTNV-1">
                    <mxGeometry x="1090" y="3019" width="140" height="60" as="geometry"/>
                </mxCell>
                <mxCell id="IbffwZVj77q_SS6-gmPp-250" style="edgeStyle=none;html=1;exitX=0.5;exitY=0;exitDx=0;exitDy=0;fontSize=10;fontColor=#F0F0F0;" edge="1" parent="WIyWlLk6GJQsqaUBKTNV-1" source="IbffwZVj77q_SS6-gmPp-233">
                    <mxGeometry relative="1" as="geometry">
                        <mxPoint x="1160" y="2510" as="targetPoint"/>
                    </mxGeometry>
                </mxCell>
                <mxCell id="IbffwZVj77q_SS6-gmPp-233" value="convert to dec" style="rounded=0;whiteSpace=wrap;html=1;fontSize=10;fontColor=#F0F0F0;" vertex="1" parent="WIyWlLk6GJQsqaUBKTNV-1">
                    <mxGeometry x="1100" y="2620" width="120" height="60" as="geometry"/>
                </mxCell>
                <mxCell id="IbffwZVj77q_SS6-gmPp-236" style="edgeStyle=none;html=1;fontSize=10;fontColor=#F0F0F0;entryX=1;entryY=0.5;entryDx=0;entryDy=0;" edge="1" parent="WIyWlLk6GJQsqaUBKTNV-1" source="IbffwZVj77q_SS6-gmPp-235" target="4">
                    <mxGeometry relative="1" as="geometry">
                        <mxPoint x="1150" y="70" as="targetPoint"/>
                        <Array as="points">
                            <mxPoint x="1160" y="110"/>
                        </Array>
                    </mxGeometry>
                </mxCell>
                <mxCell id="IbffwZVj77q_SS6-gmPp-235" value="print lcm in dec" style="shape=parallelogram;perimeter=parallelogramPerimeter;whiteSpace=wrap;html=1;fixedSize=1;fontSize=10;fontColor=#F0F0F0;" vertex="1" parent="WIyWlLk6GJQsqaUBKTNV-1">
                    <mxGeometry x="1100" y="2440" width="130" height="70" as="geometry"/>
                </mxCell>
                <mxCell id="IbffwZVj77q_SS6-gmPp-249" style="edgeStyle=none;html=1;exitX=0.5;exitY=0;exitDx=0;exitDy=0;entryX=0.5;entryY=1;entryDx=0;entryDy=0;fontSize=10;fontColor=#F0F0F0;" edge="1" parent="WIyWlLk6GJQsqaUBKTNV-1" source="IbffwZVj77q_SS6-gmPp-239" target="IbffwZVj77q_SS6-gmPp-233">
                    <mxGeometry relative="1" as="geometry"/>
                </mxCell>
                <mxCell id="IbffwZVj77q_SS6-gmPp-239" value="print lcm in hex" style="shape=parallelogram;perimeter=parallelogramPerimeter;whiteSpace=wrap;html=1;fixedSize=1;fontSize=10;fontColor=#F0F0F0;" vertex="1" parent="WIyWlLk6GJQsqaUBKTNV-1">
                    <mxGeometry x="1100" y="2869" width="120" height="60" as="geometry"/>
                </mxCell>
                <mxCell id="IbffwZVj77q_SS6-gmPp-240" value="print gcd" style="shape=parallelogram;perimeter=parallelogramPerimeter;whiteSpace=wrap;html=1;fixedSize=1;fontSize=10;fontColor=#F0F0F0;" vertex="1" parent="WIyWlLk6GJQsqaUBKTNV-1">
                    <mxGeometry x="1100" y="3230" width="120" height="60" as="geometry"/>
                </mxCell>
            </root>
        </mxGraphModel>
    </diagram>
</mxfile>